<svg width="33" height="25" viewBox="0 0 33 25" fill="none" xmlns="http://www.w3.org/2000/svg">
<path d="M3.74624 21.1941C3.19585 21.1484 2.71261 21.5575 2.66689 22.1079C2.62117 22.6583 3.03028 23.1415 3.58067 23.1873L3.74624 21.1941ZM24.2537 0.439472C23.7594 0.193029 23.159 0.393917 22.9125 0.888169L18.8965 8.94246C18.6501 9.43671 18.8509 10.0372 19.3452 10.2836C19.8394 10.53 20.4399 10.3292 20.6863 9.83491L24.2561 2.67554L31.4155 6.24534C31.9098 6.49178 32.5102 6.29089 32.7567 5.79664C33.0031 5.30239 32.8022 4.70194 32.308 4.4555L24.2537 0.439472ZM3.58067 23.1873C7.18173 23.4864 10.6955 23.516 13.8445 23.0786C16.9871 22.6421 19.8345 21.7313 22.0412 20.0953C24.2765 18.4381 25.795 16.0788 26.3162 12.8926C26.8316 9.74086 26.3652 5.82764 24.7558 1.01712L22.8591 1.65167C24.4106 6.28901 24.7864 9.85461 24.3424 12.5698C23.904 15.2503 22.6612 17.146 20.8501 18.4887C19.0104 19.8526 16.5264 20.6869 13.5693 21.0976C10.6187 21.5074 7.26451 21.4864 3.74624 21.1941L3.58067 23.1873Z" fill="#2F0052"/>
</svg>
