<svg viewBox="0 0 32 32" fill="none" xmlns="http://www.w3.org/2000/svg">
<g clip-path="url(#clip0_3496_38282)">
<path fill-rule="evenodd" clip-rule="evenodd" d="M16 32C24.8366 32 32 24.8366 32 16C32 7.16344 24.8366 0 16 0C7.16344 0 0 7.16344 0 16C0 24.8366 7.16344 32 16 32Z" fill="#012169"/>
<path fill-rule="evenodd" clip-rule="evenodd" d="M30.1331 8.49244L20.0002 16.0499L30.111 23.5488C29.343 24.9814 28.3632 26.2835 27.2135 27.4132L16.0002 19.0499L4.80714 27.433C3.65713 26.307 2.6763 25.0089 1.90633 23.5803L11.9502 16.0999L1.83008 8.56275C2.58352 7.13017 3.54783 5.82581 4.68176 4.69094L15.9502 13.0499L27.2561 4.62866C28.3984 5.75951 29.3713 7.06127 30.1331 8.49244Z" fill="white"/>
<path fill-rule="evenodd" clip-rule="evenodd" d="M27.8404 5.23853C28.2079 5.64261 28.555 6.06557 28.88 6.5058L19.5501 13.5501L19.6501 11.3501L27.8404 5.23853ZM2.26221 7.79348C2.55658 7.30176 2.87661 6.82715 3.22043 6.37152L11.9501 12.8001H8.95011L2.26221 7.79348ZM28.7765 25.6329C29.1008 25.2035 29.404 24.7571 29.6844 24.2955L21.2001 18.0501H18.4501L28.7765 25.6329ZM4.23783 26.8468L12.3001 20.8001L12.0001 19.0501L3.20578 25.6092C3.52915 26.039 3.87368 26.4521 4.23783 26.8468Z" fill="#C8102E"/>
<path fill-rule="evenodd" clip-rule="evenodd" d="M31.4959 20C31.825 18.7215 32 17.3812 32 16C32 14.6188 31.825 13.2785 31.4959 12H20.05V0.517026C18.7565 0.179608 17.3992 0 16 0C14.6368 0 13.3134 0.170482 12.05 0.491287V12H0.50407C0.175012 13.2785 0 14.6188 0 16C0 17.3812 0.175012 18.7215 0.50407 20H12.05V31.5087C13.3134 31.8295 14.6368 32 16 32C17.3992 32 18.7565 31.8204 20.05 31.483V20H31.4959Z" fill="white"/>
<path fill-rule="evenodd" clip-rule="evenodd" d="M31.8136 18.45C31.9363 17.6513 32 16.8331 32 16C32 15.2017 31.9415 14.417 31.8286 13.65H18.5742L18.6652 0.220972C17.7984 0.075643 16.908 0 16 0C15.2763 0 14.5639 0.0480418 13.8657 0.14111L13.7742 13.65H0.17136C0.0584697 14.417 0 15.2017 0 16C0 16.8331 0.0636678 17.6513 0.186403 18.45H13.7417L13.6512 31.8288C14.4178 31.9416 15.2021 32 16 32C16.8335 32 17.6521 31.9363 18.4513 31.8134L18.5417 18.45H31.8136Z" fill="#C8102E"/>
<path fill-rule="evenodd" clip-rule="evenodd" d="M16 31.0667C24.3211 31.0667 31.0667 24.3211 31.0667 16C31.0667 7.67891 24.3211 0.933333 16 0.933333C7.67891 0.933333 0.933333 7.67891 0.933333 16C0.933333 24.3211 7.67891 31.0667 16 31.0667ZM16 32C24.8366 32 32 24.8366 32 16C32 7.16344 24.8366 0 16 0C7.16344 0 0 7.16344 0 16C0 24.8366 7.16344 32 16 32Z" fill="#D9D9D9"/>
</g>
<defs>
<clipPath id="clip0_3496_38282">
<rect width="32" height="32" fill="white"/>
</clipPath>
</defs>
</svg>
