<svg width="16" height="16" viewBox="0 0 16 16" fill="none" xmlns="http://www.w3.org/2000/svg">
<g clip-path="url(#clip0_100_363)">
<path d="M9.99609 8.00001C9.99609 10.7618 7.75881 12.9995 4.99804 12.9995C2.23727 12.9995 0 10.7613 0 8.00001C0 5.23875 2.23782 3.00049 4.99804 3.00049C7.75827 3.00049 9.99609 5.23875 9.99609 8.00001Z" fill="#E2574C"/>
<path d="M11.0006 3.00049C9.87965 3.00049 8.84773 3.37396 8.01382 3.99742L8.01782 3.99791C8.18183 4.15638 8.36278 4.26792 8.50228 4.45035L7.46236 4.46685C7.29939 4.63135 7.1509 4.81033 7.01091 4.99633H8.84472C8.98421 5.16379 9.11318 5.30932 9.2302 5.49427H6.67845C6.58496 5.65527 6.49849 5.82075 6.42298 5.99271H9.52071C9.6017 6.16418 9.67419 6.29369 9.73571 6.47519H6.23951C6.18402 6.6477 6.13653 6.82416 6.1005 7.00412H9.88217C9.91918 7.17712 9.94764 7.33707 9.96716 7.50009H6.02549C6.00899 7.66459 6.00049 7.83156 6.00049 8.00007H9.99562C9.99562 8.17707 9.98312 8.34102 9.96513 8.50004H6.02549C6.04249 8.66953 6.0675 8.83601 6.1005 9.00002H9.87614C9.83715 9.16199 9.79213 9.32496 9.73566 9.49396H6.22799C6.28096 9.66493 6.3455 9.83091 6.41596 9.99289H9.52071C9.43473 10.1749 9.33723 10.3204 9.22976 10.4908H6.66951C6.77052 10.6658 6.882 10.8328 7.00296 10.9928L8.84477 11.0203C8.68778 11.2087 8.48632 11.3222 8.30279 11.4872C8.31277 11.4952 8.00932 11.4862 7.41185 11.4767C8.32078 12.4147 9.59117 12.9996 11.0005 12.9996C13.7618 12.9996 16 10.7613 16 8.00007C16 5.23886 13.7623 3.00049 11.0006 3.00049Z" fill="#F4B459"/>
</g>
<defs>
<clipPath id="clip0_100_363">
<rect width="16" height="16" fill="white"/>
</clipPath>
</defs>
</svg>
