<svg viewBox="0 0 24 24" fill="none" xmlns="http://www.w3.org/2000/svg">
<g clip-path="url(#clip0_444_1224)">
<path d="M20.4 0H3.6C1.61177 0 0 1.61177 0 3.6V20.4C0 22.3882 1.61177 24 3.6 24H20.4C22.3882 24 24 22.3882 24 20.4V3.6C24 1.61177 22.3882 0 20.4 0Z" fill="white"/>
<path d="M17.6717 8.6625L8.47012 18.7031H5.09512C4.86075 18.7031 4.67325 18.4688 4.72012 18.2344L6.97012 3.98438C7.017 3.65625 7.29825 3.42188 7.62637 3.42188H13.3451C17.2826 3.5625 18.3607 5.57812 17.6576 8.67188L17.6717 8.6625Z" fill="#002C8A"/>
<path d="M17.8217 7.73438C19.2279 8.48438 19.5561 9.89062 19.0873 11.7656C18.4779 14.5312 16.6498 15.7031 13.9779 15.75L13.2279 15.7969C12.9467 15.7969 12.7592 15.9844 12.7123 16.2656L12.1029 19.9688C12.0561 20.2969 11.7748 20.5312 11.4467 20.5312H8.63418C8.39981 20.5312 8.21231 20.2969 8.25918 20.0625L9.29043 13.3594C9.33731 13.125 17.8217 7.73438 17.8217 7.73438Z" fill="#009BE1"/>
<path d="M9.23438 13.6875L10.1719 7.73438C10.2026 7.59339 10.279 7.46647 10.3892 7.37326C10.4993 7.28005 10.6371 7.22574 10.7812 7.21875H15.2812C16.3594 7.21875 17.1562 7.40625 17.8125 7.73438C17.5781 9.79688 16.5938 13.125 11.8125 13.2188H9.75C9.51562 13.2188 9.28125 13.4062 9.23438 13.6875Z" fill="#001F6B"/>
</g>
<defs>
<clipPath id="clip0_444_1224">
<rect width="24" height="24" fill="white"/>
</clipPath>
</defs>
</svg>
