<svg viewBox="0 0 16 16" fill="none" xmlns="http://www.w3.org/2000/svg">
<g clip-path="url(#clip0_100_364)">
<path d="M14.8963 2.62061H1.10321C0.569972 2.62061 0.137695 3.05288 0.137695 3.58612V12.4137C0.137695 12.9469 0.569972 13.3792 1.10321 13.3792H14.8963C15.4296 13.3792 15.8618 12.9469 15.8618 12.4137V3.58612C15.8618 3.05288 15.4296 2.62061 14.8963 2.62061Z" fill="white" stroke="#F3F3F3" stroke-width="13.7931"/>
<path fill-rule="evenodd" clip-rule="evenodd" d="M7.29325 8.07074L7.36291 7.62701L7.20773 7.6234H6.4668L6.98172 4.34904C6.98332 4.33912 6.98851 4.32992 6.99609 4.32337C7.00371 4.31682 7.01339 4.31323 7.02354 4.31323H8.27292C8.68771 4.31323 8.97394 4.39978 9.12338 4.57061C9.19345 4.65076 9.23805 4.73453 9.25965 4.82669C9.2823 4.92341 9.28269 5.03895 9.26059 5.17989L9.25899 5.19014V5.28047L9.32906 5.32028C9.38804 5.35167 9.43494 5.38759 9.47091 5.42869C9.53083 5.49725 9.56958 5.58436 9.58597 5.68759C9.60291 5.79377 9.59731 5.92017 9.56958 6.06323C9.53761 6.22778 9.48594 6.37112 9.41615 6.48839C9.35196 6.59645 9.27019 6.6861 9.17306 6.75554C9.08037 6.82155 8.97022 6.87165 8.84569 6.9037C8.72498 6.9352 8.5874 6.95109 8.43648 6.95109H8.33924C8.26975 6.95109 8.20222 6.97623 8.1492 7.02122C8.09604 7.06718 8.06089 7.12996 8.05011 7.1986L8.04277 7.23857L7.91968 8.02067L7.91411 8.04936C7.91262 8.05846 7.91008 8.06298 7.90636 8.06605C7.90305 8.06886 7.89827 8.07074 7.89358 8.07074H7.29325Z" fill="#28356A"/>
<path fill-rule="evenodd" clip-rule="evenodd" d="M9.39552 5.20044C9.39183 5.22435 9.38755 5.24877 9.38275 5.2739C9.218 6.12226 8.65431 6.41533 7.93439 6.41533H7.56783C7.47977 6.41533 7.40556 6.47942 7.39188 6.56651L7.15105 8.09851C7.14214 8.15572 7.18609 8.20722 7.24361 8.20722H7.89376C7.97072 8.20722 8.03613 8.15114 8.04827 8.075L8.05464 8.0419L8.17704 7.26286L8.18493 7.22013C8.1969 7.14372 8.26245 7.08761 8.33941 7.08761H8.43665C9.06653 7.08761 9.55963 6.83117 9.70377 6.08899C9.76394 5.77895 9.73279 5.52008 9.57348 5.33801C9.52529 5.28314 9.46548 5.23755 9.39552 5.20044Z" fill="#298FC2"/>
<path fill-rule="evenodd" clip-rule="evenodd" d="M9.2234 5.13157C9.19821 5.1242 9.17226 5.11754 9.14561 5.11152C9.11882 5.10564 9.0914 5.10044 9.06315 5.09588C8.96434 5.07986 8.85603 5.07227 8.74003 5.07227H7.76078C7.73664 5.07227 7.71374 5.07773 7.69325 5.08761C7.64806 5.10938 7.61452 5.15226 7.60641 5.20476L7.39808 6.528L7.39209 6.56656C7.4058 6.47947 7.48001 6.41536 7.56803 6.41536H7.9346C8.65452 6.41536 9.21821 6.12215 9.38299 5.27393C9.3879 5.24882 9.39203 5.2244 9.39573 5.20049C9.35405 5.1783 9.30892 5.15933 9.26031 5.14317C9.24828 5.13916 9.2359 5.13531 9.2234 5.13157Z" fill="#22284F"/>
<path fill-rule="evenodd" clip-rule="evenodd" d="M7.60624 5.20467C7.61438 5.15218 7.6479 5.1093 7.69308 5.08768C7.71372 5.07776 7.73648 5.0723 7.76062 5.0723H8.73987C8.85587 5.0723 8.96417 5.07993 9.06302 5.09595C9.09124 5.10047 9.11866 5.10571 9.14544 5.11159C9.17209 5.11757 9.19805 5.12427 9.22324 5.1316C9.23573 5.13535 9.24812 5.13924 9.26026 5.14309C9.30886 5.15925 9.35405 5.17837 9.39573 5.20041C9.44475 4.8869 9.39532 4.67345 9.2263 4.48016C9.03995 4.26734 8.70365 4.17627 8.27328 4.17627H7.02387C6.93598 4.17627 6.861 4.24036 6.8474 4.32762L6.32702 7.63563C6.31675 7.70107 6.3671 7.76013 6.43292 7.76013H7.20423L7.60624 5.20467Z" fill="#28356A"/>
<path fill-rule="evenodd" clip-rule="evenodd" d="M3.61244 8.97119H2.70151C2.63916 8.97119 2.58615 9.0166 2.57641 9.07834L2.20798 11.4208C2.20067 11.4671 2.23638 11.5087 2.28313 11.5087H2.718C2.78033 11.5087 2.83335 11.4634 2.84309 11.4015L2.94245 10.7697C2.95202 10.7078 3.00516 10.6624 3.06739 10.6624H3.35575C3.9558 10.6624 4.30209 10.3712 4.39258 9.79417C4.43332 9.5417 4.39429 9.34336 4.27638 9.20443C4.14692 9.05188 3.91729 8.97119 3.61244 8.97119ZM3.71751 9.82678C3.66769 10.1546 3.41796 10.1546 3.17649 10.1546H3.039L3.13545 9.54236C3.14118 9.50537 3.17313 9.47812 3.21045 9.47812H3.27346C3.43796 9.47812 3.59313 9.47812 3.67329 9.57216C3.72113 9.62824 3.73575 9.71161 3.71751 9.82678Z" fill="#28356A"/>
<path fill-rule="evenodd" clip-rule="evenodd" d="M6.35864 9.79848H5.92242C5.88526 9.79848 5.85312 9.82574 5.84741 9.86273L5.8281 9.98508L5.79762 9.94074C5.70319 9.80328 5.49257 9.75732 5.28242 9.75732C4.80035 9.75732 4.38865 10.1235 4.30846 10.6371C4.26677 10.8933 4.32603 11.1383 4.47097 11.3091C4.60391 11.4662 4.79411 11.5316 5.0204 11.5316C5.40882 11.5316 5.62415 11.2812 5.62415 11.2812L5.60473 11.4028C5.59742 11.4492 5.63312 11.4909 5.6796 11.4909H6.07251C6.135 11.4909 6.18774 11.4455 6.19762 11.3836L6.43337 9.88637C6.44082 9.84028 6.40523 9.79848 6.35864 9.79848ZM5.75055 10.6499C5.70849 10.8998 5.51072 11.0676 5.25842 11.0676C5.13177 11.0676 5.03055 11.0268 4.96551 10.9497C4.90104 10.873 4.87657 10.7639 4.89704 10.6423C4.93638 10.3945 5.13748 10.2212 5.38592 10.2212C5.50978 10.2212 5.61047 10.2626 5.67682 10.3404C5.74324 10.4191 5.76964 10.5289 5.75055 10.6499Z" fill="#28356A"/>
<path fill-rule="evenodd" clip-rule="evenodd" d="M8.64813 9.83594H8.20976C8.16794 9.83594 8.12865 9.85679 8.10496 9.89166L7.50035 10.7847L7.24407 9.9265C7.22796 9.87279 7.17856 9.83594 7.12261 9.83594H6.69188C6.63949 9.83594 6.60316 9.88725 6.6198 9.93668L7.10264 11.3576L6.64871 12.0003C6.61301 12.0509 6.64896 12.1205 6.71064 12.1205H7.14846C7.19003 12.1205 7.2289 12.1002 7.25249 12.066L8.71045 9.9555C8.74537 9.90501 8.70951 9.83594 8.64813 9.83594Z" fill="#28356A"/>
<path fill-rule="evenodd" clip-rule="evenodd" d="M10.1095 8.97119H9.19843C9.13623 8.97119 9.08321 9.0166 9.07347 9.07834L8.70505 11.4208C8.69774 11.4671 8.73344 11.5087 8.77992 11.5087H9.24745C9.29085 11.5087 9.32801 11.477 9.33479 11.4337L9.43937 10.7697C9.44894 10.7078 9.50213 10.6624 9.56431 10.6624H9.85256C10.4527 10.6624 10.7989 10.3712 10.8895 9.79417C10.9304 9.5417 10.8911 9.34336 10.7732 9.20443C10.6438 9.05188 10.4144 8.97119 10.1095 8.97119ZM10.2146 9.82678C10.1649 10.1546 9.91512 10.1546 9.67352 10.1546H9.53623L9.63278 9.54236C9.63849 9.50537 9.67019 9.47812 9.70762 9.47812H9.77063C9.93498 9.47812 10.0903 9.47812 10.1705 9.57216C10.2183 9.62824 10.2328 9.71161 10.2146 9.82678Z" fill="#298FC2"/>
<path fill-rule="evenodd" clip-rule="evenodd" d="M12.8551 9.79848H12.4191C12.3817 9.79848 12.3499 9.82574 12.3443 9.86273L12.325 9.98508L12.2943 9.94074C12.1999 9.80328 11.9894 9.75732 11.7792 9.75732C11.2972 9.75732 10.8857 10.1235 10.8055 10.6371C10.7639 10.8933 10.8229 11.1383 10.9678 11.3091C11.1011 11.4662 11.291 11.5316 11.5173 11.5316C11.9057 11.5316 12.121 11.2812 12.121 11.2812L12.1016 11.4028C12.0943 11.4492 12.13 11.4909 12.1767 11.4909H12.5695C12.6317 11.4909 12.6847 11.4455 12.6945 11.3836L12.9304 9.88637C12.9376 9.84028 12.9018 9.79848 12.8551 9.79848ZM12.2471 10.6499C12.2053 10.8998 12.0072 11.0676 11.7549 11.0676C11.6285 11.0676 11.527 11.0268 11.462 10.9497C11.3976 10.873 11.3733 10.7639 11.3935 10.6423C11.4331 10.3945 11.6339 10.2212 11.8824 10.2212C12.0062 10.2212 12.1069 10.2626 12.1733 10.3404C12.24 10.4191 12.2664 10.5289 12.2471 10.6499Z" fill="#298FC2"/>
<path fill-rule="evenodd" clip-rule="evenodd" d="M13.3328 9.03558L12.959 11.421C12.9517 11.4672 12.9873 11.5088 13.0338 11.5088H13.4097C13.4722 11.5088 13.5252 11.4635 13.5347 11.4016L13.9034 9.05922C13.9108 9.01298 13.8751 8.97119 13.8286 8.97119H13.4077C13.3705 8.9713 13.3386 8.99858 13.3328 9.03558Z" fill="#298FC2"/>
</g>
<defs>
<clipPath id="clip0_100_364">
<rect width="16" height="16" fill="white"/>
</clipPath>
</defs>
</svg>
