
<svg aria-hidden="true" style="position: absolute; width: 0; height: 0; overflow: hidden;" version="1.1" xmlns="http://www.w3.org/2000/svg" xmlns:xlink="http://www.w3.org/1999/xlink">
<defs>
<symbol id="icon-apple-black-logo-svgrepo-com-1" viewBox="0 0 32 32">
<path d="M24.733 17.001c0.045 4.843 4.248 6.454 4.295 6.475-0.036 0.114-0.672 2.297-2.214 4.551-1.334 1.949-2.718 3.892-4.899 3.932-2.143 0.039-2.832-1.271-5.281-1.271s-3.214 1.23-5.243 1.31c-2.105 0.080-3.708-2.108-5.053-4.050-2.748-3.973-4.848-11.226-2.028-16.123 1.401-2.432 3.904-3.971 6.621-4.011 2.067-0.039 4.018 1.391 5.281 1.391s3.633-1.72 6.126-1.467c1.043 0.043 3.972 0.421 5.853 3.174-0.151 0.094-3.495 2.040-3.458 6.089zM20.706 5.109c1.117-1.353 1.87-3.236 1.664-5.109-1.611 0.065-3.559 1.073-4.714 2.425-1.035 1.197-1.942 3.113-1.698 4.95 1.795 0.139 3.629-0.912 4.747-2.266z"></path>
</symbol>
<symbol id="icon-chevron-down" viewBox="0 0 32 32">
<path stroke-linejoin="round" stroke-linecap="round" stroke-miterlimit="4" stroke-width="2" d="M8 12l8 8 8-8"></path>
</symbol>
<symbol id="icon-arrow-up" viewBox="0 0 32 32">
<path stroke-linejoin="round" stroke-linecap="round" stroke-miterlimit="4" stroke-width="1.3333" d="M16 25.333v-18.667"></path>
<path stroke-linejoin="round" stroke-linecap="round" stroke-miterlimit="4" stroke-width="1.3333" d="M6.667 16l9.333-9.333 9.333 9.333"></path>
</symbol>
<symbol id="icon-arrow-down" viewBox="0 0 32 32">
<path stroke-linejoin="round" stroke-linecap="round" stroke-miterlimit="4" stroke-width="1.3333" d="M16 6.667v18.667"></path>
<path stroke-linejoin="round" stroke-linecap="round" stroke-miterlimit="4" stroke-width="1.3333" d="M25.333 16l-9.333 9.333-9.333-9.333"></path>
</symbol>
<symbol id="icon-ci_line-l" viewBox="0 0 32 32">
<path stroke-linejoin="round" stroke-linecap="round" stroke-miterlimit="4" stroke-width="1.3333" d="M16 25.333v-18.667"></path>
</symbol>
<symbol id="icon-arrow-left-circle" viewBox="0 0 32 32">
<path stroke-linejoin="round" stroke-linecap="round" stroke-miterlimit="4" stroke-width="2" d="M16 29.333c7.364 0 13.333-5.97 13.333-13.333s-5.969-13.333-13.333-13.333c-7.364 0-13.333 5.97-13.333 13.333s5.97 13.333 13.333 13.333z"></path>
<path stroke-linejoin="round" stroke-linecap="round" stroke-miterlimit="4" stroke-width="2" d="M16 10.666l-5.333 5.333 5.333 5.333"></path>
<path stroke-linejoin="round" stroke-linecap="round" stroke-miterlimit="4" stroke-width="2" d="M21.334 16h-10.667"></path>
</symbol>
<symbol id="icon-copy" viewBox="0 0 32 32">
<path stroke-linejoin="round" stroke-linecap="round" stroke-miterlimit="4" stroke-width="2" d="M26.667 12h-12c-1.473 0-2.667 1.194-2.667 2.667v12c0 1.473 1.194 2.667 2.667 2.667h12c1.473 0 2.667-1.194 2.667-2.667v-12c0-1.473-1.194-2.667-2.667-2.667z"></path>
<path stroke-linejoin="round" stroke-linecap="round" stroke-miterlimit="4" stroke-width="2" d="M6.667 20h-1.333c-0.707 0-1.386-0.281-1.886-0.781s-0.781-1.178-0.781-1.886v-12c0-0.707 0.281-1.386 0.781-1.886s1.178-0.781 1.886-0.781h12c0.707 0 1.386 0.281 1.886 0.781s0.781 1.178 0.781 1.886v1.333"></path>
</symbol>
<symbol id="icon-dot" viewBox="0 0 32 32">
<path d="M32 16c0 8.837-7.163 16-16 16s-16-7.163-16-16c0-8.837 7.163-16 16-16s16 7.163 16 16z"></path>
</symbol>
<symbol id="icon-arrow-right" viewBox="0 0 32 32">
<path stroke-linejoin="round" stroke-linecap="round" stroke-miterlimit="4" stroke-width="2" d="M6.667 16h18.667"></path>
<path stroke-linejoin="round" stroke-linecap="round" stroke-miterlimit="4" stroke-width="2" d="M16 6.667l9.333 9.333-9.333 9.333"></path>
</symbol>
<symbol id="icon-filter" viewBox="0 0 32 32">
<path stroke-linejoin="round" stroke-linecap="round" stroke-miterlimit="4" stroke-width="2" d="M29.334 4h-26.667l10.667 12.613v8.72l5.333 2.667v-11.387l10.667-12.613z"></path>
</symbol>
<symbol id="icon-chevron-right" viewBox="0 0 32 32">
<path stroke-linejoin="round" stroke-linecap="round" stroke-miterlimit="4" stroke-width="2" d="M12 24l8-8-8-8"></path>
</symbol>
<symbol id="icon-arrow-up-circle" viewBox="0 0 32 32">
<path stroke-linejoin="round" stroke-linecap="round" stroke-miterlimit="4" stroke-width="2" d="M16 29.333c7.364 0 13.333-5.97 13.333-13.333s-5.969-13.333-13.333-13.333c-7.364 0-13.333 5.97-13.333 13.333s5.97 13.333 13.333 13.333z"></path>
<path stroke-linejoin="round" stroke-linecap="round" stroke-miterlimit="4" stroke-width="2" d="M21.334 16l-5.333-5.333-5.333 5.333"></path>
<path stroke-linejoin="round" stroke-linecap="round" stroke-miterlimit="4" stroke-width="2" d="M16 21.333v-10.667"></path>
</symbol>
<symbol id="icon-arrow-down-circle" viewBox="0 0 32 32">
<path stroke-linejoin="round" stroke-linecap="round" stroke-miterlimit="4" stroke-width="2" d="M16 29.333c7.364 0 13.333-5.97 13.333-13.333s-5.969-13.333-13.333-13.333c-7.364 0-13.333 5.97-13.333 13.333s5.97 13.333 13.333 13.333z"></path>
<path stroke-linejoin="round" stroke-linecap="round" stroke-miterlimit="4" stroke-width="2" d="M10.667 16l5.333 5.333 5.333-5.333"></path>
<path stroke-linejoin="round" stroke-linecap="round" stroke-miterlimit="4" stroke-width="2" d="M16 10.666v10.667"></path>
</symbol>
<symbol id="icon-arrow-right-circle" viewBox="0 0 32 32">
<path stroke-linejoin="round" stroke-linecap="round" stroke-miterlimit="4" stroke-width="2" d="M16 29.333c7.364 0 13.333-5.97 13.333-13.333s-5.969-13.333-13.333-13.333c-7.364 0-13.333 5.97-13.333 13.333s5.97 13.333 13.333 13.333z"></path>
<path stroke-linejoin="round" stroke-linecap="round" stroke-miterlimit="4" stroke-width="2" d="M16 21.333l5.333-5.333-5.333-5.333"></path>
<path stroke-linejoin="round" stroke-linecap="round" stroke-miterlimit="4" stroke-width="2" d="M10.667 16h10.667"></path>
</symbol>
<symbol id="icon-Download" viewBox="0 0 32 32">
<path d="M16 0c-8.837 0-16 7.163-16 16s7.163 16 16 16c8.837 0 16-7.163 16-16s-7.163-16-16-16zM16 29.5c-7.456 0-13.5-6.044-13.5-13.5s6.044-13.5 13.5-13.5c7.456 0 13.5 6.044 13.5 13.5s-6.044 13.5-13.5 13.5z"></path>
<path d="M22 20v2h-12v-2h-2v4h16v-4h-2z"></path>
<path d="M17 16v-8h-2v8h-3l4 5 4-5h-3z"></path>
</symbol>
<symbol id="icon-curved-arrow" viewBox="0 0 44 32">
<path d="M4.656 27.883c-0.734-0.061-1.378 0.485-1.439 1.218s0.485 1.378 1.218 1.439l0.221-2.658zM32 0.21c-0.659-0.329-1.46-0.061-1.788 0.598l-5.355 10.739c-0.329 0.659-0.061 1.46 0.598 1.788s1.46 0.061 1.788-0.598l4.76-9.546 9.546 4.76c0.659 0.329 1.46 0.061 1.788-0.598s0.061-1.46-0.598-1.788l-10.739-5.355zM4.436 30.54c4.801 0.399 9.486 0.438 13.685-0.145 4.19-0.582 7.987-1.796 10.929-3.978 2.98-2.21 5.005-5.355 5.7-9.604 0.687-4.202 0.065-9.42-2.080-15.834l-2.529 0.846c2.069 6.183 2.57 10.937 1.978 14.557-0.585 3.574-2.242 6.102-4.656 7.892-2.453 1.819-5.765 2.931-9.708 3.479-3.934 0.547-8.406 0.518-13.097 0.129l-0.221 2.658z"></path>
</symbol>
<symbol id="icon-linkedin" viewBox="0 0 32 32">
<path d="M6.644 8.263c1.611 0 2.917-1.306 2.917-2.917s-1.306-2.917-2.917-2.917c-1.611 0-2.917 1.306-2.917 2.917s1.306 2.917 2.917 2.917z"></path>
<path d="M12.316 10.474v16.185h5.025v-8.004c0-2.112 0.397-4.157 3.016-4.157 2.583 0 2.615 2.415 2.615 4.291v7.872h5.028v-8.876c0-4.36-0.939-7.711-6.035-7.711-2.447 0-4.087 1.343-4.757 2.613h-0.068v-2.213h-4.824zM4.126 10.474h5.033v16.185h-5.033v-16.185z"></path>
</symbol>
<symbol id="icon-behance" viewBox="0 0 32 32">
<path d="M9.924 7.133c0.852 0 1.64 0.067 2.36 0.264 0.721 0.132 1.312 0.396 1.836 0.725 0.525 0.33 0.919 0.792 1.18 1.385 0.263 0.593 0.395 1.32 0.395 2.111 0 0.924-0.197 1.715-0.656 2.308-0.393 0.595-1.049 1.121-1.836 1.517 1.115 0.331 1.967 0.924 2.492 1.715s0.852 1.781 0.852 2.903c0 0.924-0.197 1.715-0.525 2.375-0.327 0.66-0.852 1.253-1.443 1.649-0.642 0.424-1.351 0.736-2.097 0.923-0.787 0.199-1.573 0.331-2.36 0.331h-8.788v-18.205h8.591zM9.399 14.52c0.721 0 1.312-0.197 1.771-0.527s0.656-0.924 0.656-1.649c0-0.396-0.067-0.792-0.197-1.055s-0.328-0.463-0.589-0.66c-0.267-0.15-0.555-0.261-0.853-0.329-0.328-0.067-0.655-0.067-1.049-0.067h-3.803v4.288l4.065-0.001zM9.596 22.304c0.393 0 0.787-0.067 1.115-0.132 0.328-0.067 0.656-0.197 0.917-0.396 0.266-0.194 0.489-0.441 0.656-0.725 0.131-0.329 0.263-0.725 0.263-1.187 0-0.924-0.263-1.584-0.787-2.045-0.525-0.396-1.247-0.593-2.099-0.593h-4.328v5.080l4.263-0.001zM22.252 22.237c0.524 0.528 1.311 0.792 2.36 0.792 0.721 0 1.377-0.197 1.901-0.527 0.525-0.396 0.853-0.792 0.984-1.188h3.213c-0.525 1.583-1.312 2.704-2.36 3.429-1.051 0.66-2.296 1.056-3.804 1.056-0.965 0.001-1.921-0.178-2.82-0.528-0.809-0.302-1.53-0.8-2.099-1.451-0.61-0.606-1.061-1.354-1.311-2.177-0.328-0.857-0.46-1.78-0.46-2.836 0-0.989 0.132-1.912 0.46-2.771 0.315-0.827 0.782-1.588 1.377-2.243 0.589-0.593 1.311-1.12 2.097-1.451 0.876-0.352 1.811-0.531 2.755-0.528 1.115 0 2.099 0.199 2.951 0.66 0.853 0.461 1.508 0.989 2.032 1.781 0.525 0.725 0.92 1.583 1.181 2.507 0.131 0.923 0.196 1.847 0.131 2.901h-9.508c0 1.056 0.393 2.045 0.919 2.573zM26.383 15.313c-0.459-0.461-1.18-0.725-2.033-0.725-0.5-0.007-0.995 0.105-1.443 0.329-0.393 0.199-0.655 0.463-0.917 0.727-0.243 0.254-0.403 0.576-0.459 0.923-0.067 0.331-0.132 0.593-0.132 0.857h5.901c-0.131-0.989-0.459-1.648-0.917-2.111zM20.612 8.387h7.344v1.781h-7.343l-0.001-1.781z"></path>
</symbol>
<symbol id="icon-facebook" viewBox="0 0 32 32">
<path d="M18.667 18h3.333l1.333-5.333h-4.667v-2.667c0-1.373 0-2.667 2.667-2.667h2v-4.48c-0.435-0.057-2.076-0.187-3.809-0.187-3.62 0-6.191 2.209-6.191 6.267v3.733h-4v5.333h4v11.333h5.333v-11.333z"></path>
</symbol>
<symbol id="icon-tiktok" viewBox="0 0 32 32">
<path d="M22.134 7.76c-0.911-1.041-1.413-2.377-1.413-3.76h-4.12v16.533c-0.031 0.895-0.409 1.743-1.053 2.365s-1.505 0.969-2.4 0.969c-1.893 0-3.467-1.547-3.467-3.467 0-2.293 2.213-4.013 4.493-3.307v-4.213c-4.6-0.613-8.627 2.96-8.627 7.52 0 4.44 3.68 7.6 7.587 7.6 4.187 0 7.587-3.4 7.587-7.6v-8.387c1.671 1.2 3.676 1.843 5.733 1.84v-4.12c0 0-2.507 0.12-4.32-1.973z"></path>
</symbol>
<symbol id="icon-instagram" viewBox="0 0 32 32">
<path d="M17.371 2.667c1.5 0.004 2.261 0.012 2.919 0.031l0.259 0.009c0.299 0.011 0.593 0.024 0.949 0.040 1.419 0.067 2.387 0.291 3.236 0.62 0.88 0.339 1.621 0.797 2.363 1.537 0.678 0.666 1.203 1.473 1.537 2.363 0.329 0.849 0.553 1.817 0.62 3.237 0.016 0.355 0.029 0.649 0.040 0.949l0.008 0.259c0.020 0.656 0.028 1.417 0.031 2.917l0.001 0.995v1.747c0.003 0.973-0.007 1.945-0.031 2.917l-0.008 0.259c-0.011 0.3-0.024 0.595-0.040 0.949-0.067 1.42-0.293 2.387-0.621 3.237-0.334 0.89-0.859 1.696-1.537 2.363-0.666 0.678-1.473 1.203-2.363 1.537-0.849 0.329-1.817 0.553-3.236 0.62l-0.949 0.040-0.259 0.008c-0.657 0.019-1.419 0.028-2.919 0.031l-2.74 0.001c-0.973 0.003-1.946-0.007-2.919-0.031l-0.259-0.008c-0.317-0.012-0.633-0.026-0.949-0.041-1.419-0.067-2.387-0.291-3.237-0.62-0.89-0.335-1.695-0.859-2.361-1.537-0.679-0.666-1.204-1.473-1.539-2.363-0.329-0.849-0.553-1.817-0.62-3.237l-0.040-0.949-0.007-0.259c-0.025-0.972-0.036-1.945-0.033-2.917v-2.741c-0.004-0.973 0.006-1.945 0.029-2.917l0.009-0.259c0.011-0.3 0.024-0.595 0.040-0.949 0.067-1.42 0.291-2.387 0.62-3.237 0.336-0.89 0.862-1.697 1.541-2.363 0.666-0.678 1.471-1.203 2.36-1.537 0.851-0.329 1.817-0.553 3.237-0.62 0.355-0.016 0.651-0.029 0.949-0.040l0.259-0.008c0.972-0.024 1.945-0.034 2.917-0.031l2.741-0.001zM16 9.333c-1.768 0-3.464 0.702-4.714 1.953s-1.953 2.946-1.953 4.714c0 1.768 0.702 3.464 1.953 4.714s2.946 1.953 4.714 1.953 3.464-0.702 4.714-1.953c1.25-1.25 1.953-2.946 1.953-4.714s-0.702-3.464-1.953-4.714c-1.25-1.25-2.946-1.953-4.714-1.953zM16 12c0.525-0 1.045 0.103 1.531 0.304s0.926 0.495 1.298 0.867c0.372 0.371 0.666 0.812 0.867 1.298s0.305 1.005 0.305 1.531c0 0.525-0.103 1.045-0.304 1.531s-0.495 0.926-0.867 1.298c-0.371 0.371-0.812 0.666-1.298 0.867s-1.005 0.305-1.531 0.305c-1.061 0-2.078-0.421-2.828-1.172s-1.172-1.768-1.172-2.828 0.421-2.078 1.172-2.828c0.75-0.75 1.768-1.172 2.828-1.172zM23.001 7.333c-0.442 0-0.866 0.176-1.179 0.488s-0.488 0.736-0.488 1.178c0 0.442 0.176 0.866 0.488 1.178s0.737 0.488 1.179 0.488c0.442 0 0.866-0.176 1.179-0.488s0.488-0.736 0.488-1.178-0.176-0.866-0.488-1.178c-0.313-0.313-0.737-0.488-1.179-0.488z"></path>
</symbol>
<symbol id="icon-telegram" viewBox="0 0 32 32">
<path d="M27.915 6.894l-4.040 18.913c-0.301 1.332-1.075 1.632-2.192 1.031l-6.060-4.469-2.967 2.836c-0.3 0.301-0.601 0.603-1.289 0.603l0.473-6.233 11.304-10.272c0.472-0.473-0.129-0.645-0.731-0.257l-14.055 8.853-6.061-1.848c-1.332-0.429-1.332-1.333 0.301-1.933l23.553-9.156c1.16-0.344 2.149 0.259 1.763 1.933z"></path>
</symbol>
<symbol id="icon-heart" viewBox="0 0 32 32">
<path d="M16 10.667c0 0 0 0 1.013-1.333 1.173-1.547 2.907-2.667 4.987-2.667 3.32 0 6 2.68 6 6 0 1.24-0.373 2.387-1.013 3.333-1.080 1.613-10.987 12-10.987 12s-9.907-10.387-10.987-12c-0.64-0.947-1.013-2.093-1.013-3.333 0-3.32 2.68-6 6-6 2.080 0 3.827 1.12 4.987 2.667 1.013 1.333 1.013 1.333 1.013 1.333z"></path>
<path stroke-linejoin="round" stroke-linecap="round" stroke-miterlimit="4" stroke-width="2.6667" d="M16 10.667c0 0 0 0-1.013-1.333-1.173-1.547-2.907-2.667-4.987-2.667-3.32 0-6 2.68-6 6 0 1.24 0.373 2.387 1.013 3.333 1.080 1.613 10.987 12 10.987 12M16 10.667c0 0 0 0 1.013-1.333 1.173-1.547 2.907-2.667 4.987-2.667 3.32 0 6 2.68 6 6 0 1.24-0.373 2.387-1.013 3.333-1.080 1.613-10.987 12-10.987 12"></path>
</symbol>
<symbol id="icon-cross-line" viewBox="0 0 32 32">
<path d="M25.135 8.602c0.114-0.114 0.204-0.249 0.266-0.398s0.094-0.308 0.094-0.47-0.032-0.321-0.093-0.47c-0.062-0.149-0.152-0.284-0.266-0.398s-0.249-0.205-0.398-0.266c-0.149-0.062-0.308-0.094-0.47-0.094s-0.321 0.032-0.47 0.093c-0.149 0.062-0.284 0.152-0.398 0.266l-7.401 7.401-7.398-7.401c-0.23-0.23-0.543-0.36-0.868-0.36s-0.638 0.129-0.868 0.36c-0.23 0.23-0.36 0.543-0.36 0.868s0.129 0.638 0.36 0.868l7.401 7.398-7.401 7.398c-0.114 0.114-0.204 0.249-0.266 0.398s-0.093 0.309-0.093 0.47c0 0.161 0.032 0.321 0.093 0.47s0.152 0.284 0.266 0.398c0.23 0.23 0.543 0.36 0.868 0.36 0.161 0 0.321-0.032 0.47-0.093s0.284-0.152 0.398-0.266l7.398-7.401 7.401 7.401c0.23 0.23 0.543 0.359 0.868 0.359s0.638-0.13 0.868-0.36c0.23-0.23 0.359-0.543 0.359-0.868s-0.13-0.638-0.36-0.867l-7.401-7.398 7.401-7.398z"></path>
</symbol>
<symbol id="icon-menu-burger" viewBox="0 0 32 32">
<path stroke-linejoin="round" stroke-linecap="round" stroke-miterlimit="4" stroke-width="2.5" d="M4 8h24M4 16h24M4 24h24"></path>
</symbol>
<symbol id="icon-UAH" viewBox="0 0 32 32">
<path fill="#2f0052" style="fill: var(--color1, #2f0052)" d="M31.557 21.469h-1.371v-5.383h-6.194v5.383h-1.371v-11.422h1.371v4.867h6.194v-4.867h1.371v11.422z"></path>
<path fill="#2f0052" style="fill: var(--color1, #2f0052)" d="M19.565 21.469l-1.452-3.625h-4.726l-1.444 3.625h-1.387l4.613-11.469h1.234l4.581 11.469h-1.419zM17.702 16.664l-1.379-3.601c-0.032-0.094-0.086-0.247-0.161-0.461-0.070-0.214-0.142-0.435-0.218-0.664s-0.137-0.414-0.185-0.555c-0.054 0.214-0.113 0.427-0.177 0.641-0.059 0.208-0.118 0.404-0.177 0.586-0.059 0.177-0.11 0.328-0.153 0.453l-1.403 3.601h3.855z"></path>
<path fill="#2f0052" style="fill: var(--color1, #2f0052)" d="M9.040 10.047v7.391c0 0.807-0.169 1.526-0.508 2.156-0.333 0.63-0.839 1.128-1.516 1.492-0.677 0.359-1.527 0.539-2.548 0.539-1.457 0-2.567-0.383-3.331-1.149-0.758-0.766-1.137-1.789-1.137-3.070v-7.359h1.379v7.398c0 0.969 0.263 1.716 0.79 2.242 0.532 0.526 1.325 0.789 2.379 0.789 0.72 0 1.309-0.125 1.766-0.375 0.462-0.255 0.804-0.609 1.024-1.063 0.226-0.458 0.339-0.987 0.339-1.586v-7.406h1.363z"></path>
</symbol>
<symbol id="icon-house" viewBox="0 0 34 32">
<path d="M3.993 15.495v15.957c0 0.168 0.167 0.337 0.337 0.337h8.699v-11.368h7.565v11.368h8.699c0.167 0 0.337-0.168 0.337-0.337v-15.957l-12.818-12-12.818 12z"></path>
<path d="M6.304 9.306l-5.673 5.304c-0.21 0.21-0.337 0.464-0.337 0.715 0 0.294 0.084 0.548 0.294 0.758s0.463 0.337 0.714 0.337h0.043c0.253 0 0.504-0.084 0.714-0.294l14.709-13.811 14.709 13.811c0.21 0.168 0.463 0.294 0.757 0.253 0.294 0 0.547-0.127 0.714-0.337 0.21-0.21 0.294-0.464 0.294-0.758s-0.126-0.548-0.337-0.715l-14.624-13.727c-0.463-0.421-0.967-0.632-1.471-0.632s-1.051 0.211-1.471 0.632l-6.094 5.684v-2.947h-2.942l0 5.727z"></path>
</symbol>
<symbol id="icon-hand" viewBox="0 0 33 32">
<path d="M8.49 30.428c0.030-0.107 0.017-0.218-0.037-0.313l-5.485-9.738c-0.054-0.095-0.141-0.163-0.248-0.193-0.037-0.010-0.074-0.015-0.111-0.015-0.070 0-0.138 0.018-0.198 0.052l-1.867 1.061c-0.198 0.112-0.265 0.364-0.154 0.562l5.485 9.738c0.111 0.198 0.363 0.268 0.557 0.157l1.867-1.062c0.094-0.054 0.16-0.143 0.191-0.249zM32.548 21.761l-10.678 6.654c-0.963 0.595-2.017 0.744-3.138 0.442l-8.751-2.356c-0.148-0.039-0.302-0.020-0.433 0.058l-1.349 0.782-3.31-5.878 4.975-2.896c1.111-0.648 2.316-1.191 3.585-0.777 0.403 0.132 0.869 0.301 1.41 0.497 1.544 0.562 3.468 1.26 5.458 1.626 0.708 0.246 1.104 0.932 0.923 1.608-0.222 0.825-0.869 0.98-1.427 0.944-1.091-0.212-3.998-1.041-4.478-1.17-0.302-0.082-0.614 0.1-0.695 0.404-0.084 0.305 0.098 0.618 0.403 0.7 0.47 0.128 4.569 1.198 4.616 1.201 0.218 0.043 0.44 0.081 0.665 0.118 1.232 0.198 2.326 0.006 3.34-0.589l5.261-3.079c1.927-1.127 3.41-1.238 3.971-0.297 0.386 0.649 0.215 1.662-0.346 2.008zM2.85 21.926c0.054 0.366-0.198 0.706-0.56 0.759-0.366 0.054-0.702-0.199-0.756-0.565s0.198-0.706 0.56-0.759c0.366-0.054 0.705 0.2 0.756 0.565zM16.647 0.3l2.182 1.266-7.075 4.105v3.041c0 0.122 0.060 0.226 0.165 0.287l1.64 0.951c0.053 0.030 0.112 0.030 0.165 0s0.082-0.083 0.082-0.143v-2.946l7.075-4.105 2.182 1.266c0.209 0.122 0.329 0.33 0.329 0.574v7.444c0 0.243-0.12 0.452-0.329 0.574l-6.416 3.722c-0.209 0.122-0.449 0.122-0.659 0l-6.416-3.722c-0.209-0.122-0.329-0.33-0.329-0.574v-7.444c0-0.243 0.12-0.452 0.329-0.574l6.416-3.722c0.209-0.122 0.449-0.122 0.658 0z"></path>
</symbol>
<symbol id="icon-animal-paw" viewBox="0 0 34 32">
<path d="M21.439 16.359c-0.557-0.706-1.267-1.278-2.078-1.67s-1.7-0.597-2.601-0.597c-0.901 0-1.791 0.204-2.601 0.597s-1.521 0.964-2.078 1.67l-3.631 4.61c-0.364 0.363-0.653 0.793-0.85 1.267s-0.299 0.982-0.299 1.495 0.101 1.021 0.299 1.495c0.197 0.474 0.486 0.905 0.85 1.267 0.543 0.541 1.233 0.911 1.986 1.063s1.533 0.079 2.244-0.209c1.263-0.538 2.619-0.828 3.992-0.854h0.15c1.383 0.023 2.748 0.313 4.019 0.854 0.713 0.291 1.496 0.365 2.251 0.213s1.448-0.523 1.992-1.067c0.364-0.363 0.653-0.793 0.85-1.267s0.299-0.982 0.299-1.495c0-0.513-0.101-1.021-0.299-1.495s-0.486-0.905-0.85-1.267l-3.645-4.61z"></path>
<path d="M7.37 18.685c1.793-0.8 2.323-3.505 1.184-6.040s-3.515-3.943-5.308-3.142-2.323 3.505-1.184 6.040c1.139 2.536 3.515 3.943 5.308 3.142z"></path>
<path d="M31.462 15.544c1.139-2.536 0.609-5.24-1.184-6.040s-4.169 0.607-5.308 3.142c-1.139 2.536-0.609 5.24 1.184 6.040s4.169-0.607 5.308-3.142z"></path>
<path d="M13.49 11.993c2.097-0.691 3-3.655 2.017-6.62s-3.48-4.809-5.577-4.118c-2.097 0.691-3 3.655-2.017 6.62s3.48 4.809 5.577 4.118z"></path>
<path d="M25.613 7.871c0.983-2.965 0.080-5.929-2.017-6.62s-4.594 1.153-5.577 4.118c-0.983 2.965-0.080 5.929 2.017 6.62s4.594-1.153 5.577-4.118z"></path>
<path stroke-linejoin="miter" stroke-linecap="butt" stroke-miterlimit="4" stroke-width="1.1429" stroke="white" d="M30.667 24.381c0 3.261-2.644 5.905-5.905 5.905s-5.905-2.644-5.905-5.905c0-3.261 2.644-5.905 5.905-5.905s5.905 2.644 5.905 5.905z"></path>
<path d="M25.286 21.762c0-0.139-0.055-0.272-0.153-0.37s-0.231-0.153-0.37-0.153-0.272 0.055-0.37 0.153c-0.098 0.098-0.153 0.231-0.153 0.37v2.095h-2.095c-0.139 0-0.272 0.055-0.37 0.153s-0.153 0.231-0.153 0.37c0 0.139 0.055 0.272 0.153 0.37s0.231 0.153 0.37 0.153h2.095v2.095c0 0.139 0.055 0.272 0.153 0.37s0.231 0.153 0.37 0.153 0.272-0.055 0.37-0.153c0.098-0.098 0.153-0.231 0.153-0.37v-2.095h2.095c0.139 0 0.272-0.055 0.37-0.153s0.153-0.231 0.153-0.37c0-0.139-0.055-0.272-0.153-0.37s-0.231-0.153-0.37-0.153h-2.095v-2.095z" fill="white"></path>
</symbol>
<symbol id="icon-support" viewBox="0 0 45 32">
<path d="M16.833 19.46c-0.194-0.151-1.734-1.316-6.006-1.599-0.235-0.020-0.472-0.186-0.681-0.326-0.266-0.177-0.542-0.362-0.743-0.602-0.327-0.39-0.697-0.719-1.007-1.152-2.077-2.896-4.113-3.477-4.417-3.592-0.405-0.196-1.958 0.045-1.212 1.081 0.047 0.008 2.375 3.278 2.526 3.539 0.267 0.462 0.57 0.65 0.854 0.974 0.26 0.296 0.547 0.568 0.812 0.859 0 0-1.489-0.881-1.845-1.268-0.159-0.173-0.235-0.421-0.362-0.626-0.146-0.237-0.302-0.468-0.461-0.696-0.199-0.285-0.399-0.569-0.611-0.844-0.269-0.351-0.549-0.694-0.827-1.039-0.173-0.215-0.368-0.422-0.511-0.646-0.704-1.112 0.1-1.777 0.865-1.861-0.037-0.128-0.389-3.491-0.45-4.056-0.176-1.621-0.349-2.822-1.279-3.149-0.24-0.085-0.409-0.056-0.587 0.132-0.211 0.222-0.337 1.399-0.398 2.144 0 0-0.406 3.995-0.309 5.859 0.052 1 3.158 7.878 4.051 8.94s7.872 5.086 7.872 5.086c0.233 0.194 1.526 1.189 1.526 2.494v2.833l7.525 0.009 0.006-2.599c0.017-0.48 0.099-0.958 0.157-1.437 0.164-0.547 0.033-1.579-0.044-1.98-0.874-3.9-4.093-6.204-4.444-6.476z"></path>
<path d="M44.306 6.732c-0.061-0.745-0.186-1.922-0.398-2.144-0.178-0.188-0.348-0.217-0.588-0.132-0.929 0.327-1.103 1.528-1.278 3.149-0.062 0.565-0.414 3.928-0.451 4.056 0.765 0.084 1.569 0.749 0.865 1.861-0.142 0.225-0.337 0.432-0.51 0.646-0.278 0.345-0.558 0.688-0.827 1.039-0.211 0.276-0.411 0.56-0.61 0.844-0.159 0.228-0.315 0.459-0.461 0.696-0.126 0.205-0.203 0.453-0.362 0.626-0.357 0.386-1.845 1.268-1.845 1.268 0.265-0.291 0.553-0.563 0.812-0.859 0.284-0.324 0.586-0.513 0.854-0.974 0.152-0.261 2.48-3.531 2.527-3.539 0.746-1.035-0.807-1.276-1.212-1.081-0.304 0.114-2.34 0.696-4.417 3.592-0.31 0.433-0.68 0.762-1.007 1.152-0.201 0.24-0.478 0.425-0.743 0.602-0.209 0.14-0.446 0.306-0.681 0.326-4.272 0.283-5.812 1.448-6.006 1.599-0.352 0.272-3.57 2.576-4.444 6.476-0.077 0.401-0.208 1.434-0.044 1.98 0.058 0.479 0.14 0.956 0.157 1.437l0.006 2.599 7.525-0.009v-2.833c0-1.305 1.292-2.3 1.526-2.494 0 0 6.98-4.023 7.872-5.086s3.998-7.941 4.050-8.94c0.099-1.864-0.308-5.859-0.308-5.859z"></path>
<path d="M18.358 6.741c1.848 0 3.347-1.498 3.347-3.347s-1.498-3.347-3.347-3.347c-1.848 0-3.347 1.498-3.347 3.347s1.498 3.347 3.347 3.347z"></path>
<path d="M26.441 7.45c1.797 0 3.254-1.457 3.254-3.254s-1.457-3.254-3.254-3.254c-1.797 0-3.254 1.457-3.254 3.254s1.457 3.254 3.254 3.254z"></path>
<path d="M26.207 19.328c0.385-0.354 0.749-0.654 1.060-0.89l0.047-0.036c0.363-0.281 1.197-0.804 2.77-1.228l-0.287-1.973v-1.901c0.357 0.891 0.667 2.078 0.936 3.717 0.704-0.156 1.531-0.289 2.497-0.379-0.758-4.663-1.921-6.752-4.6-8.395-0.055-0.034-0.938-0.502-1.353-0.604l-0.811 0.816-0.786-0.825c-0.003 0.001-0.006 0.001-0.008 0.002-0.601 0.144-2.054 1.082-2.815 1.809-0.608-0.729-1.344-1.331-2.247-1.885-0.056-0.034-0.965-0.516-1.392-0.62l-0.833 0.839-0.808-0.849c-0.003 0.001-0.006 0.001-0.008 0.002-0.575 0.198-1.085 0.495-1.69 0.902-2.534 1.704-3.638 3.958-4.376 8.803 0.997 0.089 1.848 0.225 2.57 0.385 0.256-1.677 0.55-2.926 0.887-3.876v4.091c0 0.004 0.001 0.007 0.001 0.012 1.414 0.41 2.184 0.894 2.527 1.16l0.046 0.035c0.312 0.236 0.677 0.537 1.063 0.892 1.027-2.299 2.99-2.753 3.272-2.821 0.002 0 0.004-0 0.006-0.001l0.525 0.552 0.525-0.552c0.002 0.001 0.005 0.001 0.006 0.001 0.282 0.068 2.248 0.518 3.275 2.818zM22.4 16.383c-1.241-0.012-2.244-1.022-2.244-2.265s1.002-2.253 2.244-2.265c1.241 0.012 2.244 1.021 2.244 2.265s-1.003 2.252-2.244 2.265z"></path>
</symbol>
<symbol id="icon-non-image" viewBox="0 0 32 32">
<path d="M28.444 3.556v24.889h-24.889v-24.889h24.889zM28.444 0h-24.889c-1.956 0-3.556 1.6-3.556 3.556v24.889c0 1.956 1.6 3.556 3.556 3.556h24.889c1.956 0 3.556-1.6 3.556-3.556v-24.889c0-1.956-1.6-3.556-3.556-3.556zM19.804 15.751l-5.333 6.88-3.804-4.604-5.333 6.862h21.333l-6.862-9.138z"></path>
</symbol>
<symbol id="icon-apple" viewBox="0 0 32 32">
<path d="M7.122 4.126c-0.057 0.946 0.082 1.894 0.408 2.784s0.831 1.704 1.484 2.391c-1.27 0.364-2.407 1.089-3.274 2.087s-1.424 2.226-1.606 3.534c-0.439 3.141 0.205 6.337 1.827 9.063l0.467 0.787 0.057 0.084 1.888 2.541c0.4 0.539 0.912 0.984 1.502 1.304s1.242 0.508 1.911 0.551c0.67 0.043 1.34-0.061 1.966-0.304s1.19-0.619 1.655-1.103c0.054-0.057 0.12-0.102 0.192-0.132s0.15-0.047 0.228-0.047c0.078 0 0.156 0.016 0.228 0.047s0.137 0.076 0.192 0.132c0.465 0.484 1.030 0.86 1.655 1.103s1.296 0.347 1.965 0.304c0.67-0.043 1.322-0.231 1.911-0.551s1.102-0.765 1.502-1.304l1.888-2.543 0.056-0.084 0.468-0.787c1.622-2.724 2.268-5.92 1.831-9.060-0.129-0.925-0.447-1.814-0.933-2.612s-1.132-1.487-1.895-2.025c-0.764-0.538-1.63-0.914-2.544-1.104s-1.859-0.19-2.774-0.001l-2.539 0.525c0.040-1.040 0.203-2.16 0.521-3.117 0.387-1.157 0.923-1.853 1.52-2.101 0.245-0.102 0.439-0.298 0.54-0.543s0.1-0.521-0.002-0.766c-0.102-0.245-0.297-0.439-0.543-0.54s-0.521-0.1-0.766 0.002c-1.403 0.585-2.2 1.973-2.647 3.315l-0.061 0.189c-0.328-0.635-0.752-1.215-1.257-1.72-0.691-0.692-1.522-1.23-2.437-1.577s-1.893-0.496-2.87-0.436c-0.446 0.026-0.867 0.214-1.183 0.529s-0.505 0.736-0.532 1.181zM11.022 14.543c-0.463 0.092-0.887 0.417-1.152 1.037-0.271 0.632-0.367 1.569-0.075 2.739 0.060 0.256 0.017 0.525-0.12 0.749s-0.356 0.386-0.611 0.45c-0.255 0.064-0.524 0.025-0.751-0.109s-0.391-0.351-0.458-0.604c-0.373-1.496-0.303-2.893 0.176-4.012 0.484-1.129 1.393-1.971 2.599-2.211 0.131-0.031 0.266-0.035 0.398-0.012s0.259 0.072 0.372 0.144c0.113 0.072 0.21 0.167 0.286 0.278s0.128 0.236 0.154 0.367c0.026 0.132 0.026 0.267-0.001 0.399s-0.081 0.256-0.157 0.366c-0.076 0.11-0.174 0.204-0.288 0.276s-0.24 0.121-0.373 0.143z"></path>
</symbol>
<symbol id="icon-first-aid-kit" viewBox="0 0 32 32">
<path d="M4.978 0h21.333v3.556h-21.333v-3.556zM24.533 5.333h-17.778c-1.956 0-3.556 1.6-3.556 3.556v19.556c0 1.956 1.6 3.556 3.556 3.556h17.778c1.956 0 3.556-1.6 3.556-3.556v-19.556c0-1.956-1.6-3.556-3.556-3.556zM22.756 21.333h-4.444v4.444h-5.333v-4.444h-4.444v-5.333h4.444v-4.444h5.333v4.444h4.444v5.333z"></path>
</symbol>
<symbol id="icon-play" viewBox="0 0 32 32">
<path d="M16 0.127c-3.139 0-6.208 0.931-8.819 2.675s-4.645 4.223-5.846 7.124c-1.201 2.9-1.516 6.092-0.903 9.171s2.124 5.907 4.344 8.127c2.22 2.22 5.048 3.732 8.127 4.344s6.271 0.298 9.171-0.903c2.9-1.201 5.379-3.236 7.124-5.846s2.675-5.679 2.675-8.819c0-2.084-0.411-4.149-1.208-6.074s-1.967-3.676-3.441-5.15c-1.474-1.474-3.224-2.643-5.15-3.441s-3.99-1.208-6.074-1.208zM12.825 23.143v-14.286l9.524 7.143-9.524 7.143z"></path>
</symbol>
<symbol id="icon-t-shirt" viewBox="0 0 32 32">
<path d="M31.898 7.644c0.057 0.206-0.015 0.434-0.135 0.612l-3.833 5.703c-0.142 0.22-0.441 0.341-0.691 0.341-0.071 0-0.27-0.014-0.348-0.036l-3.072-0.754v13.511c0 0.412-0.292 0.711-0.711 0.711h-14.933c-0.42 0-0.711-0.299-0.711-0.711v-13.511l-2.759 0.761c-0.32 0.1-0.597-0.028-0.775-0.306l-3.804-5.689c-0.121-0.185-0.156-0.391-0.1-0.597 0.050-0.213 0.199-0.356 0.391-0.455l7.758-3.669h3.556c0.42 0 0.711 0.292 0.711 0.711 0 1.465 2.055 2.503 3.52 2.503s3.591-1.031 3.591-2.503c0-0.412 0.292-0.711 0.711-0.711h3.556l7.68 3.598c0.199 0.1 0.341 0.277 0.398 0.491z"></path>
</symbol>
<symbol id="icon-people" viewBox="0 0 32 32">
<path d="M21 16c-1.285 0-2.527-0.574-3.5-1.615-0.946-1.016-1.523-2.37-1.625-3.813-0.109-1.539 0.361-2.954 1.321-3.985s2.304-1.588 3.804-1.588c1.489 0 2.836 0.566 3.794 1.595 0.967 1.039 1.437 2.451 1.329 3.977-0.104 1.444-0.681 2.798-1.625 3.813-0.97 1.042-2.212 1.616-3.498 1.616zM29.239 27h-16.478c-0.265 0.001-0.527-0.058-0.765-0.174s-0.447-0.284-0.61-0.493c-0.173-0.226-0.292-0.489-0.349-0.768s-0.050-0.567 0.020-0.844c0.526-2.113 1.83-3.866 3.77-5.067 1.722-1.066 3.914-1.654 6.172-1.654 2.303 0 4.438 0.563 6.169 1.628 1.944 1.196 3.25 2.958 3.774 5.097 0.069 0.276 0.076 0.565 0.018 0.844s-0.177 0.541-0.351 0.768c-0.163 0.208-0.371 0.376-0.609 0.491s-0.499 0.174-0.763 0.173zM9.187 16.25c-2.199 0-4.133-2.045-4.313-4.558-0.089-1.287 0.313-2.478 1.125-3.351 0.804-0.864 1.938-1.341 3.188-1.341s2.375 0.479 3.183 1.348c0.819 0.88 1.219 2.068 1.125 3.345-0.179 2.512-2.113 4.557-4.308 4.557zM13.291 18.216c-1.099-0.537-2.526-0.806-4.103-0.806-1.841 0-3.629 0.48-5.036 1.351-1.594 0.989-2.667 2.43-3.1 4.169-0.063 0.25-0.069 0.511-0.018 0.764s0.16 0.491 0.317 0.696c0.149 0.191 0.339 0.345 0.557 0.451s0.457 0.16 0.699 0.159h6.938c0.117 0 0.23-0.041 0.32-0.116s0.151-0.179 0.172-0.295c0.007-0.039 0.016-0.079 0.026-0.117 0.53-2.129 1.772-3.927 3.607-5.239 0.067-0.049 0.122-0.113 0.158-0.188s0.053-0.158 0.049-0.241c-0.004-0.083-0.029-0.164-0.072-0.235s-0.103-0.131-0.175-0.173c-0.098-0.057-0.211-0.118-0.339-0.181z"></path>
</symbol>
<symbol id="icon-arrow-left1" viewBox="0 0 41 32">
<path stroke-linejoin="round" stroke-linecap="round" stroke-miterlimit="4" stroke-width="3.4286" d="M37.714 16h-34.286M3.429 16l12.857 13.714M3.429 16l12.857-13.714"></path>
</symbol>
<symbol id="icon-arrow-right1" viewBox="0 0 41 32">
<path stroke-linejoin="round" stroke-linecap="round" stroke-miterlimit="4" stroke-width="3.4286" d="M3.429 16h34.286M37.714 16l-12.857-13.714M37.714 16l-12.857 13.714"></path>
</symbol>
<symbol id="icon-water-min" viewBox="0 0 22 32">
<path d="M10.909 0s-10.909 11.992-10.909 20.477c0 6.694 4.215 10.909 10.909 10.909s10.909-4.215 10.909-10.909c0-8.485-10.909-20.477-10.909-20.477zM12.121 27.447v-1.818c2.51-0.003 4.543-2.036 4.546-4.546v-0h1.818c-0.004 3.513-2.851 6.36-6.364 6.364h-0z"></path>
</symbol>
<symbol id="icon-content_copy" viewBox="0 0 24 24">
<path d="M18.984 21v-14.016h-10.969v14.016h10.969zM18.984 5.016q0.797 0 1.406 0.586t0.609 1.383v14.016q0 0.797-0.609 1.406t-1.406 0.609h-10.969q-0.797 0-1.406-0.609t-0.609-1.406v-14.016q0-0.797 0.609-1.383t1.406-0.586h10.969zM15.984 0.984v2.016h-12v14.016h-1.969v-14.016q0-0.797 0.586-1.406t1.383-0.609h12z"></path>
</symbol>
</defs>

<svg aria-hidden="true" style="position: absolute; width: 0; height: 0; overflow: hidden;" version="1.1"
	xmlns="http://www.w3.org/2000/svg" xmlns:xlink="http://www.w3.org/1999/xlink">
	<defs>
		<symbol id="icon-apple-black-logo-svgrepo-com-1" viewBox="0 0 32 32">
			<path
				d="M24.733 17.001c0.045 4.843 4.248 6.454 4.295 6.475-0.036 0.114-0.672 2.297-2.214 4.551-1.334 1.949-2.718 3.892-4.899 3.932-2.143 0.039-2.832-1.271-5.281-1.271s-3.214 1.23-5.243 1.31c-2.105 0.080-3.708-2.108-5.053-4.050-2.748-3.973-4.848-11.226-2.028-16.123 1.401-2.432 3.904-3.971 6.621-4.011 2.067-0.039 4.018 1.391 5.281 1.391s3.633-1.72 6.126-1.467c1.043 0.043 3.972 0.421 5.853 3.174-0.151 0.094-3.495 2.040-3.458 6.089zM20.706 5.109c1.117-1.353 1.87-3.236 1.664-5.109-1.611 0.065-3.559 1.073-4.714 2.425-1.035 1.197-1.942 3.113-1.698 4.95 1.795 0.139 3.629-0.912 4.747-2.266z">
			</path>
		</symbol>
		<symbol id="icon-chevron-down" viewBox="0 0 32 32">
			<path stroke-linejoin="round" stroke-linecap="round" stroke-miterlimit="4" stroke-width="2" d="M8 12l8 8 8-8">
			</path>
		</symbol>
		<symbol id="icon-arrow-up" viewBox="0 0 32 32">
			<path stroke-linejoin="round" stroke-linecap="round" stroke-miterlimit="4" stroke-width="1.3333"
				d="M16 25.333v-18.667"></path>
			<path stroke-linejoin="round" stroke-linecap="round" stroke-miterlimit="4" stroke-width="1.3333"
				d="M6.667 16l9.333-9.333 9.333 9.333"></path>
		</symbol>
		<symbol id="icon-arrow-down" viewBox="0 0 32 32">
			<path stroke-linejoin="round" stroke-linecap="round" stroke-miterlimit="4" stroke-width="1.3333"
				d="M16 6.667v18.667"></path>
			<path stroke-linejoin="round" stroke-linecap="round" stroke-miterlimit="4" stroke-width="1.3333"
				d="M25.333 16l-9.333 9.333-9.333-9.333"></path>
		</symbol>
		<symbol id="icon-ci_line-l" viewBox="0 0 32 32">
			<path stroke-linejoin="round" stroke-linecap="round" stroke-miterlimit="4" stroke-width="1.3333"
				d="M16 25.333v-18.667"></path>
		</symbol>
		<symbol id="icon-arrow-left-circle" viewBox="0 0 32 32">
			<path stroke-linejoin="round" stroke-linecap="round" stroke-miterlimit="4" stroke-width="2"
				d="M16 29.333c7.364 0 13.333-5.97 13.333-13.333s-5.969-13.333-13.333-13.333c-7.364 0-13.333 5.97-13.333 13.333s5.97 13.333 13.333 13.333z">
			</path>
			<path stroke-linejoin="round" stroke-linecap="round" stroke-miterlimit="4" stroke-width="2"
				d="M16 10.666l-5.333 5.333 5.333 5.333"></path>
			<path stroke-linejoin="round" stroke-linecap="round" stroke-miterlimit="4" stroke-width="2"
				d="M21.334 16h-10.667"></path>
		</symbol>
		<symbol id="icon-copy" viewBox="0 0 32 32">
			<path stroke-linejoin="round" stroke-linecap="round" stroke-miterlimit="4" stroke-width="2"
				d="M26.667 12h-12c-1.473 0-2.667 1.194-2.667 2.667v12c0 1.473 1.194 2.667 2.667 2.667h12c1.473 0 2.667-1.194 2.667-2.667v-12c0-1.473-1.194-2.667-2.667-2.667z">
			</path>
			<path stroke-linejoin="round" stroke-linecap="round" stroke-miterlimit="4" stroke-width="2"
				d="M6.667 20h-1.333c-0.707 0-1.386-0.281-1.886-0.781s-0.781-1.178-0.781-1.886v-12c0-0.707 0.281-1.386 0.781-1.886s1.178-0.781 1.886-0.781h12c0.707 0 1.386 0.281 1.886 0.781s0.781 1.178 0.781 1.886v1.333">
			</path>
		</symbol>
		<symbol id="icon-dot" viewBox="0 0 32 32">
			<path d="M32 16c0 8.837-7.163 16-16 16s-16-7.163-16-16c0-8.837 7.163-16 16-16s16 7.163 16 16z"></path>
		</symbol>
		<symbol id="icon-arrow-right" viewBox="0 0 32 32">
			<path stroke-linejoin="round" stroke-linecap="round" stroke-miterlimit="4" stroke-width="2" d="M6.667 16h18.667">
			</path>
			<path stroke-linejoin="round" stroke-linecap="round" stroke-miterlimit="4" stroke-width="2"
				d="M16 6.667l9.333 9.333-9.333 9.333"></path>
		</symbol>
		<symbol id="icon-filter" viewBox="0 0 32 32">
			<path stroke-linejoin="round" stroke-linecap="round" stroke-miterlimit="4" stroke-width="2"
				d="M29.334 4h-26.667l10.667 12.613v8.72l5.333 2.667v-11.387l10.667-12.613z"></path>
		</symbol>
		<symbol id="icon-chevron-right" viewBox="0 0 32 32">
			<path stroke-linejoin="round" stroke-linecap="round" stroke-miterlimit="4" stroke-width="2" d="M12 24l8-8-8-8">
			</path>
		</symbol>
		<symbol id="icon-arrow-up-circle" viewBox="0 0 32 32">
			<path stroke-linejoin="round" stroke-linecap="round" stroke-miterlimit="4" stroke-width="2"
				d="M16 29.333c7.364 0 13.333-5.97 13.333-13.333s-5.969-13.333-13.333-13.333c-7.364 0-13.333 5.97-13.333 13.333s5.97 13.333 13.333 13.333z">
			</path>
			<path stroke-linejoin="round" stroke-linecap="round" stroke-miterlimit="4" stroke-width="2"
				d="M21.334 16l-5.333-5.333-5.333 5.333"></path>
			<path stroke-linejoin="round" stroke-linecap="round" stroke-miterlimit="4" stroke-width="2"
				d="M16 21.333v-10.667"></path>
		</symbol>
		<symbol id="icon-arrow-down-circle" viewBox="0 0 32 32">
			<path stroke-linejoin="round" stroke-linecap="round" stroke-miterlimit="4" stroke-width="2"
				d="M16 29.333c7.364 0 13.333-5.97 13.333-13.333s-5.969-13.333-13.333-13.333c-7.364 0-13.333 5.97-13.333 13.333s5.97 13.333 13.333 13.333z">
			</path>
			<path stroke-linejoin="round" stroke-linecap="round" stroke-miterlimit="4" stroke-width="2"
				d="M10.667 16l5.333 5.333 5.333-5.333"></path>
			<path stroke-linejoin="round" stroke-linecap="round" stroke-miterlimit="4" stroke-width="2" d="M16 10.666v10.667">
			</path>
		</symbol>
		<symbol id="icon-arrow-right-circle" viewBox="0 0 32 32">
			<path stroke-linejoin="round" stroke-linecap="round" stroke-miterlimit="4" stroke-width="2"
				d="M16 29.333c7.364 0 13.333-5.97 13.333-13.333s-5.969-13.333-13.333-13.333c-7.364 0-13.333 5.97-13.333 13.333s5.97 13.333 13.333 13.333z">
			</path>
			<path stroke-linejoin="round" stroke-linecap="round" stroke-miterlimit="4" stroke-width="2"
				d="M16 21.333l5.333-5.333-5.333-5.333"></path>
			<path stroke-linejoin="round" stroke-linecap="round" stroke-miterlimit="4" stroke-width="2" d="M10.667 16h10.667">
			</path>
		</symbol>
		<symbol id="icon-Download" viewBox="0 0 32 32">
			<path
				d="M16 0c-8.837 0-16 7.163-16 16s7.163 16 16 16c8.837 0 16-7.163 16-16s-7.163-16-16-16zM16 29.5c-7.456 0-13.5-6.044-13.5-13.5s6.044-13.5 13.5-13.5c7.456 0 13.5 6.044 13.5 13.5s-6.044 13.5-13.5 13.5z">
			</path>
			<path d="M22 20v2h-12v-2h-2v4h16v-4h-2z"></path>
			<path d="M17 16v-8h-2v8h-3l4 5 4-5h-3z"></path>
		</symbol>
		<symbol id="icon-curved-arrow" viewBox="0 0 44 32">
			<path
				d="M4.656 27.883c-0.734-0.061-1.378 0.485-1.439 1.218s0.485 1.378 1.218 1.439l0.221-2.658zM32 0.21c-0.659-0.329-1.46-0.061-1.788 0.598l-5.355 10.739c-0.329 0.659-0.061 1.46 0.598 1.788s1.46 0.061 1.788-0.598l4.76-9.546 9.546 4.76c0.659 0.329 1.46 0.061 1.788-0.598s0.061-1.46-0.598-1.788l-10.739-5.355zM4.436 30.54c4.801 0.399 9.486 0.438 13.685-0.145 4.19-0.582 7.987-1.796 10.929-3.978 2.98-2.21 5.005-5.355 5.7-9.604 0.687-4.202 0.065-9.42-2.080-15.834l-2.529 0.846c2.069 6.183 2.57 10.937 1.978 14.557-0.585 3.574-2.242 6.102-4.656 7.892-2.453 1.819-5.765 2.931-9.708 3.479-3.934 0.547-8.406 0.518-13.097 0.129l-0.221 2.658z">
			</path>
		</symbol>
		<symbol id="icon-linkedin" viewBox="0 0 32 32">
			<path
				d="M6.644 8.263c1.611 0 2.917-1.306 2.917-2.917s-1.306-2.917-2.917-2.917c-1.611 0-2.917 1.306-2.917 2.917s1.306 2.917 2.917 2.917z">
			</path>
			<path
				d="M12.316 10.474v16.185h5.025v-8.004c0-2.112 0.397-4.157 3.016-4.157 2.583 0 2.615 2.415 2.615 4.291v7.872h5.028v-8.876c0-4.36-0.939-7.711-6.035-7.711-2.447 0-4.087 1.343-4.757 2.613h-0.068v-2.213h-4.824zM4.126 10.474h5.033v16.185h-5.033v-16.185z">
			</path>
		</symbol>
		<symbol id="icon-behance" viewBox="0 0 32 32">
			<path
				d="M9.924 7.133c0.852 0 1.64 0.067 2.36 0.264 0.721 0.132 1.312 0.396 1.836 0.725 0.525 0.33 0.919 0.792 1.18 1.385 0.263 0.593 0.395 1.32 0.395 2.111 0 0.924-0.197 1.715-0.656 2.308-0.393 0.595-1.049 1.121-1.836 1.517 1.115 0.331 1.967 0.924 2.492 1.715s0.852 1.781 0.852 2.903c0 0.924-0.197 1.715-0.525 2.375-0.327 0.66-0.852 1.253-1.443 1.649-0.642 0.424-1.351 0.736-2.097 0.923-0.787 0.199-1.573 0.331-2.36 0.331h-8.788v-18.205h8.591zM9.399 14.52c0.721 0 1.312-0.197 1.771-0.527s0.656-0.924 0.656-1.649c0-0.396-0.067-0.792-0.197-1.055s-0.328-0.463-0.589-0.66c-0.267-0.15-0.555-0.261-0.853-0.329-0.328-0.067-0.655-0.067-1.049-0.067h-3.803v4.288l4.065-0.001zM9.596 22.304c0.393 0 0.787-0.067 1.115-0.132 0.328-0.067 0.656-0.197 0.917-0.396 0.266-0.194 0.489-0.441 0.656-0.725 0.131-0.329 0.263-0.725 0.263-1.187 0-0.924-0.263-1.584-0.787-2.045-0.525-0.396-1.247-0.593-2.099-0.593h-4.328v5.080l4.263-0.001zM22.252 22.237c0.524 0.528 1.311 0.792 2.36 0.792 0.721 0 1.377-0.197 1.901-0.527 0.525-0.396 0.853-0.792 0.984-1.188h3.213c-0.525 1.583-1.312 2.704-2.36 3.429-1.051 0.66-2.296 1.056-3.804 1.056-0.965 0.001-1.921-0.178-2.82-0.528-0.809-0.302-1.53-0.8-2.099-1.451-0.61-0.606-1.061-1.354-1.311-2.177-0.328-0.857-0.46-1.78-0.46-2.836 0-0.989 0.132-1.912 0.46-2.771 0.315-0.827 0.782-1.588 1.377-2.243 0.589-0.593 1.311-1.12 2.097-1.451 0.876-0.352 1.811-0.531 2.755-0.528 1.115 0 2.099 0.199 2.951 0.66 0.853 0.461 1.508 0.989 2.032 1.781 0.525 0.725 0.92 1.583 1.181 2.507 0.131 0.923 0.196 1.847 0.131 2.901h-9.508c0 1.056 0.393 2.045 0.919 2.573zM26.383 15.313c-0.459-0.461-1.18-0.725-2.033-0.725-0.5-0.007-0.995 0.105-1.443 0.329-0.393 0.199-0.655 0.463-0.917 0.727-0.243 0.254-0.403 0.576-0.459 0.923-0.067 0.331-0.132 0.593-0.132 0.857h5.901c-0.131-0.989-0.459-1.648-0.917-2.111zM20.612 8.387h7.344v1.781h-7.343l-0.001-1.781z">
			</path>
		</symbol>
		<symbol id="icon-facebook" viewBox="0 0 32 32">
			<path
				d="M18.667 18h3.333l1.333-5.333h-4.667v-2.667c0-1.373 0-2.667 2.667-2.667h2v-4.48c-0.435-0.057-2.076-0.187-3.809-0.187-3.62 0-6.191 2.209-6.191 6.267v3.733h-4v5.333h4v11.333h5.333v-11.333z">
			</path>
		</symbol>
		<symbol id="icon-tiktok" viewBox="0 0 32 32">
			<path
				d="M22.134 7.76c-0.911-1.041-1.413-2.377-1.413-3.76h-4.12v16.533c-0.031 0.895-0.409 1.743-1.053 2.365s-1.505 0.969-2.4 0.969c-1.893 0-3.467-1.547-3.467-3.467 0-2.293 2.213-4.013 4.493-3.307v-4.213c-4.6-0.613-8.627 2.96-8.627 7.52 0 4.44 3.68 7.6 7.587 7.6 4.187 0 7.587-3.4 7.587-7.6v-8.387c1.671 1.2 3.676 1.843 5.733 1.84v-4.12c0 0-2.507 0.12-4.32-1.973z">
			</path>
		</symbol>
		<symbol id="icon-instagram" viewBox="0 0 32 32">
			<path
				d="M17.371 2.667c1.5 0.004 2.261 0.012 2.919 0.031l0.259 0.009c0.299 0.011 0.593 0.024 0.949 0.040 1.419 0.067 2.387 0.291 3.236 0.62 0.88 0.339 1.621 0.797 2.363 1.537 0.678 0.666 1.203 1.473 1.537 2.363 0.329 0.849 0.553 1.817 0.62 3.237 0.016 0.355 0.029 0.649 0.040 0.949l0.008 0.259c0.020 0.656 0.028 1.417 0.031 2.917l0.001 0.995v1.747c0.003 0.973-0.007 1.945-0.031 2.917l-0.008 0.259c-0.011 0.3-0.024 0.595-0.040 0.949-0.067 1.42-0.293 2.387-0.621 3.237-0.334 0.89-0.859 1.696-1.537 2.363-0.666 0.678-1.473 1.203-2.363 1.537-0.849 0.329-1.817 0.553-3.236 0.62l-0.949 0.040-0.259 0.008c-0.657 0.019-1.419 0.028-2.919 0.031l-2.74 0.001c-0.973 0.003-1.946-0.007-2.919-0.031l-0.259-0.008c-0.317-0.012-0.633-0.026-0.949-0.041-1.419-0.067-2.387-0.291-3.237-0.62-0.89-0.335-1.695-0.859-2.361-1.537-0.679-0.666-1.204-1.473-1.539-2.363-0.329-0.849-0.553-1.817-0.62-3.237l-0.040-0.949-0.007-0.259c-0.025-0.972-0.036-1.945-0.033-2.917v-2.741c-0.004-0.973 0.006-1.945 0.029-2.917l0.009-0.259c0.011-0.3 0.024-0.595 0.040-0.949 0.067-1.42 0.291-2.387 0.62-3.237 0.336-0.89 0.862-1.697 1.541-2.363 0.666-0.678 1.471-1.203 2.36-1.537 0.851-0.329 1.817-0.553 3.237-0.62 0.355-0.016 0.651-0.029 0.949-0.040l0.259-0.008c0.972-0.024 1.945-0.034 2.917-0.031l2.741-0.001zM16 9.333c-1.768 0-3.464 0.702-4.714 1.953s-1.953 2.946-1.953 4.714c0 1.768 0.702 3.464 1.953 4.714s2.946 1.953 4.714 1.953 3.464-0.702 4.714-1.953c1.25-1.25 1.953-2.946 1.953-4.714s-0.702-3.464-1.953-4.714c-1.25-1.25-2.946-1.953-4.714-1.953zM16 12c0.525-0 1.045 0.103 1.531 0.304s0.926 0.495 1.298 0.867c0.372 0.371 0.666 0.812 0.867 1.298s0.305 1.005 0.305 1.531c0 0.525-0.103 1.045-0.304 1.531s-0.495 0.926-0.867 1.298c-0.371 0.371-0.812 0.666-1.298 0.867s-1.005 0.305-1.531 0.305c-1.061 0-2.078-0.421-2.828-1.172s-1.172-1.768-1.172-2.828 0.421-2.078 1.172-2.828c0.75-0.75 1.768-1.172 2.828-1.172zM23.001 7.333c-0.442 0-0.866 0.176-1.179 0.488s-0.488 0.736-0.488 1.178c0 0.442 0.176 0.866 0.488 1.178s0.737 0.488 1.179 0.488c0.442 0 0.866-0.176 1.179-0.488s0.488-0.736 0.488-1.178-0.176-0.866-0.488-1.178c-0.313-0.313-0.737-0.488-1.179-0.488z">
			</path>
		</symbol>
		<symbol id="icon-telegram" viewBox="0 0 32 32">
			<path
				d="M27.915 6.894l-4.040 18.913c-0.301 1.332-1.075 1.632-2.192 1.031l-6.060-4.469-2.967 2.836c-0.3 0.301-0.601 0.603-1.289 0.603l0.473-6.233 11.304-10.272c0.472-0.473-0.129-0.645-0.731-0.257l-14.055 8.853-6.061-1.848c-1.332-0.429-1.332-1.333 0.301-1.933l23.553-9.156c1.16-0.344 2.149 0.259 1.763 1.933z">
			</path>
		</symbol>
		<symbol id="icon-heart" viewBox="0 0 32 32">
			<path
				d="M16 10.667c0 0 0 0 1.013-1.333 1.173-1.547 2.907-2.667 4.987-2.667 3.32 0 6 2.68 6 6 0 1.24-0.373 2.387-1.013 3.333-1.080 1.613-10.987 12-10.987 12s-9.907-10.387-10.987-12c-0.64-0.947-1.013-2.093-1.013-3.333 0-3.32 2.68-6 6-6 2.080 0 3.827 1.12 4.987 2.667 1.013 1.333 1.013 1.333 1.013 1.333z">
			</path>
			<path stroke-linejoin="round" stroke-linecap="round" stroke-miterlimit="4" stroke-width="2.6667"
				d="M16 10.667c0 0 0 0-1.013-1.333-1.173-1.547-2.907-2.667-4.987-2.667-3.32 0-6 2.68-6 6 0 1.24 0.373 2.387 1.013 3.333 1.080 1.613 10.987 12 10.987 12M16 10.667c0 0 0 0 1.013-1.333 1.173-1.547 2.907-2.667 4.987-2.667 3.32 0 6 2.68 6 6 0 1.24-0.373 2.387-1.013 3.333-1.080 1.613-10.987 12-10.987 12">
			</path>
		</symbol>
		<symbol id="icon-cross-line" viewBox="0 0 32 32">
			<path
				d="M25.135 8.602c0.114-0.114 0.204-0.249 0.266-0.398s0.094-0.308 0.094-0.47-0.032-0.321-0.093-0.47c-0.062-0.149-0.152-0.284-0.266-0.398s-0.249-0.205-0.398-0.266c-0.149-0.062-0.308-0.094-0.47-0.094s-0.321 0.032-0.47 0.093c-0.149 0.062-0.284 0.152-0.398 0.266l-7.401 7.401-7.398-7.401c-0.23-0.23-0.543-0.36-0.868-0.36s-0.638 0.129-0.868 0.36c-0.23 0.23-0.36 0.543-0.36 0.868s0.129 0.638 0.36 0.868l7.401 7.398-7.401 7.398c-0.114 0.114-0.204 0.249-0.266 0.398s-0.093 0.309-0.093 0.47c0 0.161 0.032 0.321 0.093 0.47s0.152 0.284 0.266 0.398c0.23 0.23 0.543 0.36 0.868 0.36 0.161 0 0.321-0.032 0.47-0.093s0.284-0.152 0.398-0.266l7.398-7.401 7.401 7.401c0.23 0.23 0.543 0.359 0.868 0.359s0.638-0.13 0.868-0.36c0.23-0.23 0.359-0.543 0.359-0.868s-0.13-0.638-0.36-0.867l-7.401-7.398 7.401-7.398z">
			</path>
		</symbol>
		<symbol id="icon-menu-burger" viewBox="0 0 32 32">
			<path stroke-linejoin="round" stroke-linecap="round" stroke-miterlimit="4" stroke-width="2.5"
				d="M4 8h24M4 16h24M4 24h24"></path>
		</symbol>
		<symbol id="icon-UAH" viewBox="0 0 32 32">
			<path fill="#2f0052" style="fill: var(--color1, #2f0052)"
				d="M31.557 21.469h-1.371v-5.383h-6.194v5.383h-1.371v-11.422h1.371v4.867h6.194v-4.867h1.371v11.422z"></path>
			<path fill="#2f0052" style="fill: var(--color1, #2f0052)"
				d="M19.565 21.469l-1.452-3.625h-4.726l-1.444 3.625h-1.387l4.613-11.469h1.234l4.581 11.469h-1.419zM17.702 16.664l-1.379-3.601c-0.032-0.094-0.086-0.247-0.161-0.461-0.070-0.214-0.142-0.435-0.218-0.664s-0.137-0.414-0.185-0.555c-0.054 0.214-0.113 0.427-0.177 0.641-0.059 0.208-0.118 0.404-0.177 0.586-0.059 0.177-0.11 0.328-0.153 0.453l-1.403 3.601h3.855z">
			</path>
			<path fill="#2f0052" style="fill: var(--color1, #2f0052)"
				d="M9.040 10.047v7.391c0 0.807-0.169 1.526-0.508 2.156-0.333 0.63-0.839 1.128-1.516 1.492-0.677 0.359-1.527 0.539-2.548 0.539-1.457 0-2.567-0.383-3.331-1.149-0.758-0.766-1.137-1.789-1.137-3.070v-7.359h1.379v7.398c0 0.969 0.263 1.716 0.79 2.242 0.532 0.526 1.325 0.789 2.379 0.789 0.72 0 1.309-0.125 1.766-0.375 0.462-0.255 0.804-0.609 1.024-1.063 0.226-0.458 0.339-0.987 0.339-1.586v-7.406h1.363z">
			</path>
		</symbol>
		<symbol id="icon-house" viewBox="0 0 34 32">
			<path
				d="M3.993 15.495v15.957c0 0.168 0.167 0.337 0.337 0.337h8.699v-11.368h7.565v11.368h8.699c0.167 0 0.337-0.168 0.337-0.337v-15.957l-12.818-12-12.818 12z">
			</path>
			<path
				d="M6.304 9.306l-5.673 5.304c-0.21 0.21-0.337 0.464-0.337 0.715 0 0.294 0.084 0.548 0.294 0.758s0.463 0.337 0.714 0.337h0.043c0.253 0 0.504-0.084 0.714-0.294l14.709-13.811 14.709 13.811c0.21 0.168 0.463 0.294 0.757 0.253 0.294 0 0.547-0.127 0.714-0.337 0.21-0.21 0.294-0.464 0.294-0.758s-0.126-0.548-0.337-0.715l-14.624-13.727c-0.463-0.421-0.967-0.632-1.471-0.632s-1.051 0.211-1.471 0.632l-6.094 5.684v-2.947h-2.942l0 5.727z">
			</path>
		</symbol>
		<symbol id="icon-hand" viewBox="0 0 33 32">
			<path
				d="M8.49 30.428c0.030-0.107 0.017-0.218-0.037-0.313l-5.485-9.738c-0.054-0.095-0.141-0.163-0.248-0.193-0.037-0.010-0.074-0.015-0.111-0.015-0.070 0-0.138 0.018-0.198 0.052l-1.867 1.061c-0.198 0.112-0.265 0.364-0.154 0.562l5.485 9.738c0.111 0.198 0.363 0.268 0.557 0.157l1.867-1.062c0.094-0.054 0.16-0.143 0.191-0.249zM32.548 21.761l-10.678 6.654c-0.963 0.595-2.017 0.744-3.138 0.442l-8.751-2.356c-0.148-0.039-0.302-0.020-0.433 0.058l-1.349 0.782-3.31-5.878 4.975-2.896c1.111-0.648 2.316-1.191 3.585-0.777 0.403 0.132 0.869 0.301 1.41 0.497 1.544 0.562 3.468 1.26 5.458 1.626 0.708 0.246 1.104 0.932 0.923 1.608-0.222 0.825-0.869 0.98-1.427 0.944-1.091-0.212-3.998-1.041-4.478-1.17-0.302-0.082-0.614 0.1-0.695 0.404-0.084 0.305 0.098 0.618 0.403 0.7 0.47 0.128 4.569 1.198 4.616 1.201 0.218 0.043 0.44 0.081 0.665 0.118 1.232 0.198 2.326 0.006 3.34-0.589l5.261-3.079c1.927-1.127 3.41-1.238 3.971-0.297 0.386 0.649 0.215 1.662-0.346 2.008zM2.85 21.926c0.054 0.366-0.198 0.706-0.56 0.759-0.366 0.054-0.702-0.199-0.756-0.565s0.198-0.706 0.56-0.759c0.366-0.054 0.705 0.2 0.756 0.565zM16.647 0.3l2.182 1.266-7.075 4.105v3.041c0 0.122 0.060 0.226 0.165 0.287l1.64 0.951c0.053 0.030 0.112 0.030 0.165 0s0.082-0.083 0.082-0.143v-2.946l7.075-4.105 2.182 1.266c0.209 0.122 0.329 0.33 0.329 0.574v7.444c0 0.243-0.12 0.452-0.329 0.574l-6.416 3.722c-0.209 0.122-0.449 0.122-0.659 0l-6.416-3.722c-0.209-0.122-0.329-0.33-0.329-0.574v-7.444c0-0.243 0.12-0.452 0.329-0.574l6.416-3.722c0.209-0.122 0.449-0.122 0.658 0z">
			</path>
		</symbol>
		<symbol id="icon-animal-paw" viewBox="0 0 34 32">
			<path
				d="M21.439 16.359c-0.557-0.706-1.267-1.278-2.078-1.67s-1.7-0.597-2.601-0.597c-0.901 0-1.791 0.204-2.601 0.597s-1.521 0.964-2.078 1.67l-3.631 4.61c-0.364 0.363-0.653 0.793-0.85 1.267s-0.299 0.982-0.299 1.495 0.101 1.021 0.299 1.495c0.197 0.474 0.486 0.905 0.85 1.267 0.543 0.541 1.233 0.911 1.986 1.063s1.533 0.079 2.244-0.209c1.263-0.538 2.619-0.828 3.992-0.854h0.15c1.383 0.023 2.748 0.313 4.019 0.854 0.713 0.291 1.496 0.365 2.251 0.213s1.448-0.523 1.992-1.067c0.364-0.363 0.653-0.793 0.85-1.267s0.299-0.982 0.299-1.495c0-0.513-0.101-1.021-0.299-1.495s-0.486-0.905-0.85-1.267l-3.645-4.61z">
			</path>
			<path
				d="M7.37 18.685c1.793-0.8 2.323-3.505 1.184-6.040s-3.515-3.943-5.308-3.142-2.323 3.505-1.184 6.040c1.139 2.536 3.515 3.943 5.308 3.142z">
			</path>
			<path
				d="M31.462 15.544c1.139-2.536 0.609-5.24-1.184-6.040s-4.169 0.607-5.308 3.142c-1.139 2.536-0.609 5.24 1.184 6.040s4.169-0.607 5.308-3.142z">
			</path>
			<path
				d="M13.49 11.993c2.097-0.691 3-3.655 2.017-6.62s-3.48-4.809-5.577-4.118c-2.097 0.691-3 3.655-2.017 6.62s3.48 4.809 5.577 4.118z">
			</path>
			<path
				d="M25.613 7.871c0.983-2.965 0.080-5.929-2.017-6.62s-4.594 1.153-5.577 4.118c-0.983 2.965-0.080 5.929 2.017 6.62s4.594-1.153 5.577-4.118z">
			</path>
			<path stroke-linejoin="miter" stroke-linecap="butt" stroke-miterlimit="4" stroke-width="1.1429" stroke="white"
				d="M30.667 24.381c0 3.261-2.644 5.905-5.905 5.905s-5.905-2.644-5.905-5.905c0-3.261 2.644-5.905 5.905-5.905s5.905 2.644 5.905 5.905z">
			</path>
			<path
				d="M25.286 21.762c0-0.139-0.055-0.272-0.153-0.37s-0.231-0.153-0.37-0.153-0.272 0.055-0.37 0.153c-0.098 0.098-0.153 0.231-0.153 0.37v2.095h-2.095c-0.139 0-0.272 0.055-0.37 0.153s-0.153 0.231-0.153 0.37c0 0.139 0.055 0.272 0.153 0.37s0.231 0.153 0.37 0.153h2.095v2.095c0 0.139 0.055 0.272 0.153 0.37s0.231 0.153 0.37 0.153 0.272-0.055 0.37-0.153c0.098-0.098 0.153-0.231 0.153-0.37v-2.095h2.095c0.139 0 0.272-0.055 0.37-0.153s0.153-0.231 0.153-0.37c0-0.139-0.055-0.272-0.153-0.37s-0.231-0.153-0.37-0.153h-2.095v-2.095z"
				fill="white"></path>
		</symbol>
		<symbol id="icon-support" viewBox="0 0 45 32">
			<path
				d="M16.833 19.46c-0.194-0.151-1.734-1.316-6.006-1.599-0.235-0.020-0.472-0.186-0.681-0.326-0.266-0.177-0.542-0.362-0.743-0.602-0.327-0.39-0.697-0.719-1.007-1.152-2.077-2.896-4.113-3.477-4.417-3.592-0.405-0.196-1.958 0.045-1.212 1.081 0.047 0.008 2.375 3.278 2.526 3.539 0.267 0.462 0.57 0.65 0.854 0.974 0.26 0.296 0.547 0.568 0.812 0.859 0 0-1.489-0.881-1.845-1.268-0.159-0.173-0.235-0.421-0.362-0.626-0.146-0.237-0.302-0.468-0.461-0.696-0.199-0.285-0.399-0.569-0.611-0.844-0.269-0.351-0.549-0.694-0.827-1.039-0.173-0.215-0.368-0.422-0.511-0.646-0.704-1.112 0.1-1.777 0.865-1.861-0.037-0.128-0.389-3.491-0.45-4.056-0.176-1.621-0.349-2.822-1.279-3.149-0.24-0.085-0.409-0.056-0.587 0.132-0.211 0.222-0.337 1.399-0.398 2.144 0 0-0.406 3.995-0.309 5.859 0.052 1 3.158 7.878 4.051 8.94s7.872 5.086 7.872 5.086c0.233 0.194 1.526 1.189 1.526 2.494v2.833l7.525 0.009 0.006-2.599c0.017-0.48 0.099-0.958 0.157-1.437 0.164-0.547 0.033-1.579-0.044-1.98-0.874-3.9-4.093-6.204-4.444-6.476z">
			</path>
			<path
				d="M44.306 6.732c-0.061-0.745-0.186-1.922-0.398-2.144-0.178-0.188-0.348-0.217-0.588-0.132-0.929 0.327-1.103 1.528-1.278 3.149-0.062 0.565-0.414 3.928-0.451 4.056 0.765 0.084 1.569 0.749 0.865 1.861-0.142 0.225-0.337 0.432-0.51 0.646-0.278 0.345-0.558 0.688-0.827 1.039-0.211 0.276-0.411 0.56-0.61 0.844-0.159 0.228-0.315 0.459-0.461 0.696-0.126 0.205-0.203 0.453-0.362 0.626-0.357 0.386-1.845 1.268-1.845 1.268 0.265-0.291 0.553-0.563 0.812-0.859 0.284-0.324 0.586-0.513 0.854-0.974 0.152-0.261 2.48-3.531 2.527-3.539 0.746-1.035-0.807-1.276-1.212-1.081-0.304 0.114-2.34 0.696-4.417 3.592-0.31 0.433-0.68 0.762-1.007 1.152-0.201 0.24-0.478 0.425-0.743 0.602-0.209 0.14-0.446 0.306-0.681 0.326-4.272 0.283-5.812 1.448-6.006 1.599-0.352 0.272-3.57 2.576-4.444 6.476-0.077 0.401-0.208 1.434-0.044 1.98 0.058 0.479 0.14 0.956 0.157 1.437l0.006 2.599 7.525-0.009v-2.833c0-1.305 1.292-2.3 1.526-2.494 0 0 6.98-4.023 7.872-5.086s3.998-7.941 4.050-8.94c0.099-1.864-0.308-5.859-0.308-5.859z">
			</path>
			<path
				d="M18.358 6.741c1.848 0 3.347-1.498 3.347-3.347s-1.498-3.347-3.347-3.347c-1.848 0-3.347 1.498-3.347 3.347s1.498 3.347 3.347 3.347z">
			</path>
			<path
				d="M26.441 7.45c1.797 0 3.254-1.457 3.254-3.254s-1.457-3.254-3.254-3.254c-1.797 0-3.254 1.457-3.254 3.254s1.457 3.254 3.254 3.254z">
			</path>
			<path
				d="M26.207 19.328c0.385-0.354 0.749-0.654 1.060-0.89l0.047-0.036c0.363-0.281 1.197-0.804 2.77-1.228l-0.287-1.973v-1.901c0.357 0.891 0.667 2.078 0.936 3.717 0.704-0.156 1.531-0.289 2.497-0.379-0.758-4.663-1.921-6.752-4.6-8.395-0.055-0.034-0.938-0.502-1.353-0.604l-0.811 0.816-0.786-0.825c-0.003 0.001-0.006 0.001-0.008 0.002-0.601 0.144-2.054 1.082-2.815 1.809-0.608-0.729-1.344-1.331-2.247-1.885-0.056-0.034-0.965-0.516-1.392-0.62l-0.833 0.839-0.808-0.849c-0.003 0.001-0.006 0.001-0.008 0.002-0.575 0.198-1.085 0.495-1.69 0.902-2.534 1.704-3.638 3.958-4.376 8.803 0.997 0.089 1.848 0.225 2.57 0.385 0.256-1.677 0.55-2.926 0.887-3.876v4.091c0 0.004 0.001 0.007 0.001 0.012 1.414 0.41 2.184 0.894 2.527 1.16l0.046 0.035c0.312 0.236 0.677 0.537 1.063 0.892 1.027-2.299 2.99-2.753 3.272-2.821 0.002 0 0.004-0 0.006-0.001l0.525 0.552 0.525-0.552c0.002 0.001 0.005 0.001 0.006 0.001 0.282 0.068 2.248 0.518 3.275 2.818zM22.4 16.383c-1.241-0.012-2.244-1.022-2.244-2.265s1.002-2.253 2.244-2.265c1.241 0.012 2.244 1.021 2.244 2.265s-1.003 2.252-2.244 2.265z">
			</path>
		</symbol>
		<symbol id="icon-non-image" viewBox="0 0 32 32">
			<path
				d="M28.444 3.556v24.889h-24.889v-24.889h24.889zM28.444 0h-24.889c-1.956 0-3.556 1.6-3.556 3.556v24.889c0 1.956 1.6 3.556 3.556 3.556h24.889c1.956 0 3.556-1.6 3.556-3.556v-24.889c0-1.956-1.6-3.556-3.556-3.556zM19.804 15.751l-5.333 6.88-3.804-4.604-5.333 6.862h21.333l-6.862-9.138z">
			</path>
		</symbol>
		<symbol id="icon-apple" viewBox="0 0 32 32">
			<path
				d="M7.122 4.126c-0.057 0.946 0.082 1.894 0.408 2.784s0.831 1.704 1.484 2.391c-1.27 0.364-2.407 1.089-3.274 2.087s-1.424 2.226-1.606 3.534c-0.439 3.141 0.205 6.337 1.827 9.063l0.467 0.787 0.057 0.084 1.888 2.541c0.4 0.539 0.912 0.984 1.502 1.304s1.242 0.508 1.911 0.551c0.67 0.043 1.34-0.061 1.966-0.304s1.19-0.619 1.655-1.103c0.054-0.057 0.12-0.102 0.192-0.132s0.15-0.047 0.228-0.047c0.078 0 0.156 0.016 0.228 0.047s0.137 0.076 0.192 0.132c0.465 0.484 1.030 0.86 1.655 1.103s1.296 0.347 1.965 0.304c0.67-0.043 1.322-0.231 1.911-0.551s1.102-0.765 1.502-1.304l1.888-2.543 0.056-0.084 0.468-0.787c1.622-2.724 2.268-5.92 1.831-9.060-0.129-0.925-0.447-1.814-0.933-2.612s-1.132-1.487-1.895-2.025c-0.764-0.538-1.63-0.914-2.544-1.104s-1.859-0.19-2.774-0.001l-2.539 0.525c0.040-1.040 0.203-2.16 0.521-3.117 0.387-1.157 0.923-1.853 1.52-2.101 0.245-0.102 0.439-0.298 0.54-0.543s0.1-0.521-0.002-0.766c-0.102-0.245-0.297-0.439-0.543-0.54s-0.521-0.1-0.766 0.002c-1.403 0.585-2.2 1.973-2.647 3.315l-0.061 0.189c-0.328-0.635-0.752-1.215-1.257-1.72-0.691-0.692-1.522-1.23-2.437-1.577s-1.893-0.496-2.87-0.436c-0.446 0.026-0.867 0.214-1.183 0.529s-0.505 0.736-0.532 1.181zM11.022 14.543c-0.463 0.092-0.887 0.417-1.152 1.037-0.271 0.632-0.367 1.569-0.075 2.739 0.060 0.256 0.017 0.525-0.12 0.749s-0.356 0.386-0.611 0.45c-0.255 0.064-0.524 0.025-0.751-0.109s-0.391-0.351-0.458-0.604c-0.373-1.496-0.303-2.893 0.176-4.012 0.484-1.129 1.393-1.971 2.599-2.211 0.131-0.031 0.266-0.035 0.398-0.012s0.259 0.072 0.372 0.144c0.113 0.072 0.21 0.167 0.286 0.278s0.128 0.236 0.154 0.367c0.026 0.132 0.026 0.267-0.001 0.399s-0.081 0.256-0.157 0.366c-0.076 0.11-0.174 0.204-0.288 0.276s-0.24 0.121-0.373 0.143z">
			</path>
		</symbol>
		<symbol id="icon-first-aid-kit" viewBox="0 0 32 32">
			<path
				d="M4.978 0h21.333v3.556h-21.333v-3.556zM24.533 5.333h-17.778c-1.956 0-3.556 1.6-3.556 3.556v19.556c0 1.956 1.6 3.556 3.556 3.556h17.778c1.956 0 3.556-1.6 3.556-3.556v-19.556c0-1.956-1.6-3.556-3.556-3.556zM22.756 21.333h-4.444v4.444h-5.333v-4.444h-4.444v-5.333h4.444v-4.444h5.333v4.444h4.444v5.333z">
			</path>
		</symbol>
		<symbol id="icon-play" viewBox="0 0 32 32">
			<path
				d="M16 0.127c-3.139 0-6.208 0.931-8.819 2.675s-4.645 4.223-5.846 7.124c-1.201 2.9-1.516 6.092-0.903 9.171s2.124 5.907 4.344 8.127c2.22 2.22 5.048 3.732 8.127 4.344s6.271 0.298 9.171-0.903c2.9-1.201 5.379-3.236 7.124-5.846s2.675-5.679 2.675-8.819c0-2.084-0.411-4.149-1.208-6.074s-1.967-3.676-3.441-5.15c-1.474-1.474-3.224-2.643-5.15-3.441s-3.99-1.208-6.074-1.208zM12.825 23.143v-14.286l9.524 7.143-9.524 7.143z">
			</path>
		</symbol>
		<symbol id="icon-t-shirt" viewBox="0 0 32 32">
			<path
				d="M31.898 7.644c0.057 0.206-0.015 0.434-0.135 0.612l-3.833 5.703c-0.142 0.22-0.441 0.341-0.691 0.341-0.071 0-0.27-0.014-0.348-0.036l-3.072-0.754v13.511c0 0.412-0.292 0.711-0.711 0.711h-14.933c-0.42 0-0.711-0.299-0.711-0.711v-13.511l-2.759 0.761c-0.32 0.1-0.597-0.028-0.775-0.306l-3.804-5.689c-0.121-0.185-0.156-0.391-0.1-0.597 0.050-0.213 0.199-0.356 0.391-0.455l7.758-3.669h3.556c0.42 0 0.711 0.292 0.711 0.711 0 1.465 2.055 2.503 3.52 2.503s3.591-1.031 3.591-2.503c0-0.412 0.292-0.711 0.711-0.711h3.556l7.68 3.598c0.199 0.1 0.341 0.277 0.398 0.491z">
			</path>
		</symbol>
		<symbol id="icon-people" viewBox="0 0 32 32">
			<path
				d="M21 16c-1.285 0-2.527-0.574-3.5-1.615-0.946-1.016-1.523-2.37-1.625-3.813-0.109-1.539 0.361-2.954 1.321-3.985s2.304-1.588 3.804-1.588c1.489 0 2.836 0.566 3.794 1.595 0.967 1.039 1.437 2.451 1.329 3.977-0.104 1.444-0.681 2.798-1.625 3.813-0.97 1.042-2.212 1.616-3.498 1.616zM29.239 27h-16.478c-0.265 0.001-0.527-0.058-0.765-0.174s-0.447-0.284-0.61-0.493c-0.173-0.226-0.292-0.489-0.349-0.768s-0.050-0.567 0.020-0.844c0.526-2.113 1.83-3.866 3.77-5.067 1.722-1.066 3.914-1.654 6.172-1.654 2.303 0 4.438 0.563 6.169 1.628 1.944 1.196 3.25 2.958 3.774 5.097 0.069 0.276 0.076 0.565 0.018 0.844s-0.177 0.541-0.351 0.768c-0.163 0.208-0.371 0.376-0.609 0.491s-0.499 0.174-0.763 0.173zM9.187 16.25c-2.199 0-4.133-2.045-4.313-4.558-0.089-1.287 0.313-2.478 1.125-3.351 0.804-0.864 1.938-1.341 3.188-1.341s2.375 0.479 3.183 1.348c0.819 0.88 1.219 2.068 1.125 3.345-0.179 2.512-2.113 4.557-4.308 4.557zM13.291 18.216c-1.099-0.537-2.526-0.806-4.103-0.806-1.841 0-3.629 0.48-5.036 1.351-1.594 0.989-2.667 2.43-3.1 4.169-0.063 0.25-0.069 0.511-0.018 0.764s0.16 0.491 0.317 0.696c0.149 0.191 0.339 0.345 0.557 0.451s0.457 0.16 0.699 0.159h6.938c0.117 0 0.23-0.041 0.32-0.116s0.151-0.179 0.172-0.295c0.007-0.039 0.016-0.079 0.026-0.117 0.53-2.129 1.772-3.927 3.607-5.239 0.067-0.049 0.122-0.113 0.158-0.188s0.053-0.158 0.049-0.241c-0.004-0.083-0.029-0.164-0.072-0.235s-0.103-0.131-0.175-0.173c-0.098-0.057-0.211-0.118-0.339-0.181z">
			</path>
		</symbol>
		<symbol id="icon-arrow-left1" viewBox="0 0 41 32">
			<path stroke-linejoin="round" stroke-linecap="round" stroke-miterlimit="4" stroke-width="3.4286"
				d="M37.714 16h-34.286M3.429 16l12.857 13.714M3.429 16l12.857-13.714"></path>
		</symbol>
		<symbol id="icon-arrow-right1" viewBox="0 0 41 32">
			<path stroke-linejoin="round" stroke-linecap="round" stroke-miterlimit="4" stroke-width="3.4286"
				d="M3.429 16h34.286M37.714 16l-12.857-13.714M37.714 16l-12.857 13.714"></path>
		</symbol>
		<symbol id="icon-water-min" viewBox="0 0 22 32">
			<path
				d="M10.909 0s-10.909 11.992-10.909 20.477c0 6.694 4.215 10.909 10.909 10.909s10.909-4.215 10.909-10.909c0-8.485-10.909-20.477-10.909-20.477zM12.121 27.447v-1.818c2.51-0.003 4.543-2.036 4.546-4.546v-0h1.818c-0.004 3.513-2.851 6.36-6.364 6.364h-0z">
			</path>
		</symbol>
		<symbol id="icon-check-mark" viewBox="0 0 32 32">
			<path
				d="M16 0c4.243 0 8.313 1.686 11.314 4.686s4.686 7.070 4.686 11.314-1.686 8.313-4.686 11.314c-3.001 3.001-7.070 4.686-11.314 4.686s-8.313-1.686-11.314-4.686c-3.001-3.001-4.686-7.070-4.686-11.314s1.686-8.313 4.686-11.314c3.001-3.001 7.070-4.686 11.314-4.686zM14.007 19.157l-3.554-3.557c-0.127-0.127-0.279-0.229-0.445-0.297s-0.345-0.104-0.525-0.104c-0.18 0-0.359 0.036-0.525 0.104s-0.318 0.17-0.445 0.297c-0.257 0.257-0.402 0.606-0.402 0.97s0.145 0.713 0.402 0.97l4.526 4.526c0.127 0.128 0.278 0.23 0.445 0.299s0.345 0.105 0.526 0.105 0.359-0.036 0.526-0.105c0.167-0.069 0.318-0.171 0.445-0.299l9.371-9.374c0.129-0.127 0.232-0.278 0.302-0.445s0.107-0.346 0.108-0.527c0.001-0.181-0.034-0.36-0.103-0.528s-0.17-0.32-0.298-0.448-0.28-0.23-0.447-0.299c-0.167-0.069-0.347-0.104-0.528-0.104s-0.36 0.037-0.527 0.107c-0.167 0.070-0.318 0.173-0.445 0.302l-8.405 8.405z">
			</path>
		</symbol>
		<symbol xmlns="http://www.w3.org/2000/svg" fill="none" viewBox="0 0 24 24" id="icon-lamp">
			<path stroke="#000" stroke-linecap="round" stroke-linejoin="round" stroke-width="1.5"
				d="M6.09 14.999a6.9 6.9 0 0 1-.59-2.794C5.5 8.5 8.41 5.499 12 5.499s6.5 3.002 6.5 6.706a6.9 6.9 0 0 1-.59 2.794m-5.91-13v1m10 9h-1m-18 0H2m17.07-7.071-.707.707m-12.726.001-.707-.707m9.587 14.377c1.01-.327 1.416-1.252 1.53-2.182.034-.278-.195-.509-.475-.509H8.477a.483.483 0 0 0-.488.534c.112.928.394 1.606 1.464 2.156m5.064.001-5.064-.001m5.064.001c-.121 1.945-.683 2.715-2.51 2.693-1.954.036-2.404-.917-2.554-2.694">
			</path>
		</symbol>
	</defs>

</svg>
