<svg viewBox="0 0 24 24" fill="none" xmlns="http://www.w3.org/2000/svg">
<g clip-path="url(#clip0_100_365)">
<path d="M10.657 15.1674H9.00883L10.0389 8.83699H11.6872L10.657 15.1674ZM7.62233 8.83699L6.05108 13.1911L5.86515 12.2535L5.86532 12.2538L5.31075 9.40697C5.31075 9.40697 5.2437 8.83699 4.52894 8.83699H1.93136L1.90088 8.94418C1.90088 8.94418 2.69522 9.10945 3.62487 9.66774L5.05675 15.1675H6.77396L9.3961 8.83699H7.62233ZM20.5857 15.1674H22.099L20.7796 8.83682H19.4547C18.8429 8.83682 18.6939 9.30859 18.6939 9.30859L16.2358 15.1674H17.9539L18.2975 14.2271H20.3926L20.5857 15.1674ZM18.7721 12.9281L19.6381 10.5591L20.1252 12.9281H18.7721ZM16.3647 10.3593L16.5999 8.99989C16.5999 8.99989 15.8741 8.72388 15.1175 8.72388C14.2997 8.72388 12.3574 9.08134 12.3574 10.8196C12.3574 12.455 14.637 12.4753 14.637 13.3343C14.637 14.1934 12.5923 14.0394 11.9175 13.4977L11.6724 14.9191C11.6724 14.9191 12.4084 15.2766 13.5327 15.2766C14.6575 15.2766 16.3542 14.6942 16.3542 13.1093C16.3542 11.4634 14.0541 11.3101 14.0541 10.5945C14.0543 9.87873 15.6594 9.97068 16.3647 10.3593Z" fill="#2566AF"/>
<path d="M5.86532 12.2537L5.31075 9.40689C5.31075 9.40689 5.2437 8.83691 4.52894 8.83691H1.93136L1.90088 8.9441C1.90088 8.9441 3.14938 9.20284 4.3469 10.1723C5.49194 11.0989 5.86532 12.2537 5.86532 12.2537Z" fill="#E6A540"/>
</g>
<defs>
<clipPath id="clip0_100_365">
<rect width="24" height="24" fill="white"/>
</clipPath>
</defs>
</svg>
