<svg aria-hidden="true" style="position: absolute; width: 0; height: 0; overflow: hidden;" version="1.1" xmlns="http://www.w3.org/2000/svg" xmlns:xlink="http://www.w3.org/1999/xlink">
<defs>
<symbol id="icon-delete-test" viewBox="0 0 32 32">
<path d="M7.772 10.342c4.262 0.003 8.391 0.046 12.518-0.016 1.722-0.026 3.454-0.124 5.162-0.405 0.397-0.065 0.889 0.257 0.934 0.666 0.041 0.372 0.040 0.763-0.033 1.13-0.194 0.977-0.502 1.934-0.48 2.942 0.003 0.123-0.014 0.255-0.061 0.371-0.637 1.563-0.886 3.2-1.006 4.86-0.006 0.084 0.016 0.179-0.018 0.251-0.515 1.113-0.461 2.359-0.94 3.488-0.391 0.919-0.484 1.929-0.889 2.861-0.291 0.67-0.691 1.286-1.127 1.833-0.54 0.677-1.49 0.932-2.351 0.956-2.528 0.069-5.061 0.076-7.589-0.005-0.942-0.030-1.788-0.525-2.233-1.389-0.53-1.029-1.152-2.052-1.438-3.148-0.248-0.954-0.715-1.881-0.682-2.9 0.017-0.509-0.246-0.962-0.339-1.453-0.298-1.554-0.043-3.184-0.711-4.682 0.070-1.434-0.237-2.82-0.584-4.202-0.030-0.12-0.007-0.253-0.006-0.378 0.003-0.767 0.003-0.77 0.803-0.788 0.31-0.007 0.621 0.004 1.065 0.008h0.003z"></path>
<path d="M7.735 6.678c0.34 0 0.564-0.019 0.782 0.003 0.981 0.098 1.395-0.395 1.957-1.074 0.825-0.995 1.82-1.82 2.982-2.457 0.113-0.062 0.217-0.198 0.325-0.198 1.646 0.005 3.302-0.644 4.933 0.001 0.594 0.236 1.215 0.455 1.665 0.965 0.764 0.867 1.714 1.71 2.864 2.246 0.565 0.263 0.959 0.527 1.294 0.396 0.785-0.304 1.547 0.115 2.3-0.118 0.287-0.088 0.508 0.063 0.493 0.4-0.010 0.209-0.015 0.417-0.001 0.626 0.022 0.333-0.169 0.436-0.48 0.436-0.884-0.001-1.766 0-2.65 0-0.84 0-1.685-0.070-2.517 0.006-5.125 0.469-10.261 0.152-15.391 0.228-0.394 0.006-0.786 0.057-1.139-0.205-0.192-0.142-0.56-0.157-0.473-0.482 0.059-0.22 0.177-0.435 0.456-0.57 0.376-0.181 0.748-0.277 1.138-0.159 0.465 0.141 0.9 0.041 1.464-0.045h-0.001zM11.99 6.276c0.029 0.431 0.377 0.399 0.677 0.398 2.072-0.004 4.145-0.023 6.217-0.018 0.373 0 0.708-0.302 1.127-0.060 0.148 0.085 0.401-0.157 0.467-0.355 0.056-0.17-0.113-0.26-0.251-0.377-0.445-0.369-0.889-0.751-1.257-1.185-0.305-0.36-0.661-0.499-1.114-0.541-1.235-0.118-2.429 0.263-3.656 0.254-0.237-0.001-0.371 0.206-0.556 0.308-0.64 0.351-1.024 0.969-1.654 1.576h0.001z"></path>
</symbol>
</defs>
</svg>